<mxfile host="Electron" modified="2023-12-27T07:13:16.683Z" agent="Mozilla/5.0 (Macintosh; Intel Mac OS X 10_15_7) AppleWebKit/537.36 (KHTML, like Gecko) draw.io/22.1.11 Chrome/114.0.5735.289 Electron/25.9.8 Safari/537.36" etag="4H8YFz0QIL5YcJPUroi8" version="22.1.11" type="device">
  <diagram name="versatility" id="ckUR2c8MsVFH27lm23_o">
    <mxGraphModel dx="2564" dy="1351" grid="1" gridSize="10" guides="1" tooltips="1" connect="1" arrows="1" fold="1" page="1" pageScale="1" pageWidth="850" pageHeight="1100" math="0" shadow="0">
      <root>
        <mxCell id="0" />
        <mxCell id="hs8F6ffxhh7QRecEe4GT-3" value="icons" visible="0" parent="0" />
        <mxCell id="g3nPJNQ9NZN2WeUWGuOm-7" value="" style="shape=image;verticalLabelPosition=bottom;labelBackgroundColor=default;verticalAlign=top;aspect=fixed;imageAspect=0;image=data:image/svg+xml,PHN2ZyB4bWxucz0iaHR0cDovL3d3dy53My5vcmcvMjAwMC9zdmciIHdpZHRoPSIyNTQuODczNDEzMDg1OTM3NSIgdmlld0JveD0iMC41NjYyMzg4ODAxNTc0NzA3IDAuMDg0NzYxNjE5NTY3ODcxMSAyNTQuODczNDEzMDg1OTM3NSAxNTIuNDEzMjUzNzg0MTc5NyIgcHJlc2VydmVBc3BlY3RSYXRpbz0ieE1pZFlNaWQiIGhlaWdodD0iMTUyLjQxMzI1Mzc4NDE3OTciPjxwYXRoIGZpbGw9IiMyNTJmM2UiIGQ9Im03Mi4zOTIwNTMgNTUuNDM4NDEwNmMwIDMuMTM2NDIzOC4zMzkwNzI4IDUuNjc5NDcwMi45MzI0NTAzIDcuNTQ0MzcwOS42NzgxNDU3IDEuODY0OTAwNiAxLjUyNTgyNzggMy44OTkzMzc3IDIuNzEyNTgyOCA2LjEwMzMxMTIuNDIzODQxMS42NzgxNDU3LjU5MzM3NzUgMS4zNTYyOTE0LjU5MzM3NzUgMS45NDk2Njg5IDAgLjg0NzY4MjEtLjUwODYwOTMgMS42OTUzNjQyLTEuNjEwNTk2MSAyLjU0MzA0NjNsLTUuMzQwMzk3MyAzLjU2MDI2NDljLS43NjI5MTM5LjUwODYwOTMtMS41MjU4Mjc4Ljc2MjkxNC0yLjIwMzk3MzUuNzYyOTE0LS44NDc2ODIxIDAtMS42OTUzNjQyLS40MjM4NDExLTIuNTQzMDQ2NC0xLjE4Njc1NS0xLjE4Njc1NDktMS4yNzE1MjMyLTIuMjAzOTczNS0yLjYyNzgxNDYtMy4wNTE2NTU2LTMuOTg0MTA2LS44NDc2ODIxLTEuNDQxMDU5Ni0xLjY5NTM2NDItMy4wNTE2NTU2LTIuNjI3ODE0Ni01LjAwMTMyNDUtNi42MTE5MjA1IDcuNzk4Njc1NS0xNC45MTkyMDUzIDExLjY5ODAxMzMtMjQuOTIxODU0MyAxMS42OTgwMTMzLTcuMTIwNTI5OCAwLTEyLjgtMi4wMzQ0MzcxLTE2Ljk1MzY0MjQtNi4xMDMzMTEzLTQuMTUzNjQyMy00LjA2ODg3NDItNi4yNzI4NDc2LTkuNDk0MDM5Ny02LjI3Mjg0NzYtMTYuMjc1NDk2NyAwLTcuMjA1Mjk4IDIuNTQzMDQ2My0xMy4wNTQzMDQ2IDcuNzEzOTA3Mi0xNy40NjIyNTE2IDUuMTcwODYxLTQuNDA3OTQ3MSAxMi4wMzcwODYxLTYuNjExOTIwNiAyMC43NjgyMTItNi42MTE5MjA2IDIuODgyMTE5MiAwIDUuODQ5MDA2Ni4yNTQzMDQ3IDguOTg1NDMwNC42NzgxNDU3IDMuMTM2NDIzOS40MjM4NDExIDYuMzU3NjE1OSAxLjEwMTk4NjggOS43NDgzNDQ0IDEuODY0OTAwN3YtNi4xODgwNzk1YzAtNi40NDIzODQxLTEuMzU2MjkxNC0xMC45MzUwOTkzLTMuOTg0MTA2LTEzLjU2MjkxMzktMi43MTI1ODI3LTIuNjI3ODE0Ni03LjI5MDA2NjItMy44OTkzMzc3LTEzLjgxNzIxODUtMy44OTkzMzc3LTIuOTY2ODg3NCAwLTYuMDE4NTQzLjMzOTA3MjgtOS4xNTQ5NjY5IDEuMTAxOTg2Ny0zLjEzNjQyMzguNzYyOTEzOS02LjE4ODA3OTUgMS42OTUzNjQzLTkuMTU0OTY2OSAyLjg4MjExOTItMS4zNTYyOTE0LjU5MzM3NzUtMi4zNzM1MDk5LjkzMjQ1MDQtMi45NjY4ODc0IDEuMTAxOTg2OHMtMS4wMTcyMTg1LjI1NDMwNDYtMS4zNTYyOTE0LjI1NDMwNDZjLTEuMTg2NzU1IDAtMS43ODAxMzI0LS44NDc2ODIxLTEuNzgwMTMyNC0yLjYyNzgxNDV2LTQuMTUzNjQyNGMwLTEuMzU2MjkxNDIuMTY5NTM2NC0yLjM3MzUwOTk3LjU5MzM3NzQtMi45NjY4ODc0NS40MjM4NDExLS41OTMzNzc0OCAxLjE4Njc1NS0xLjE4Njc1NDk3IDIuMzczNTEtMS43ODAxMzI0NSAyLjk2Njg4NzQtMS41MjU4Mjc4MiA2LjUyNzE1MjMtMi43OTczNTA5OSAxMC42ODA3OTQ3LTMuODE0NTY5NTQgNC4xNTM2NDI0LTEuMTAxOTg2NzUgOC41NjE1ODk0LTEuNjEwNTk2MDIgMTMuMjIzODQxLTEuNjEwNTk2MDIgMTAuMDg3NDE3MyAwIDE3LjQ2MjI1MTcgMi4yODg3NDE3MiAyMi4yMDkyNzE2IDYuODY2MjI1MTYgNC42NjIyNTE2IDQuNTc3NDgzNCA3LjAzNTc2MTYgMTEuNTI4NDc2OCA3LjAzNTc2MTYgMjAuODUyOTgwMXYyNy40NjQ5MDA3em0tMzQuNDE1ODk0MSAxMi44ODQ3NjgyYzIuNzk3MzUxIDAgNS42Nzk0NzAyLS41MDg2MDkzIDguNzMxMTI1OS0xLjUyNTgyNzggMy4wNTE2NTU2LTEuMDE3MjE4NSA1Ljc2NDIzODQtMi44ODIxMTkyIDguMDUyOTgwMS01LjQyNTE2NTYgMS4zNTYyOTE0LTEuNjEwNTk2IDIuMzczNTA5OS0zLjM5MDcyODQgMi44ODIxMTkyLTUuNDI1MTY1NXMuODQ3NjgyMS00LjQ5MjcxNTMuODQ3NjgyMS03LjM3NDgzNDV2LTMuNTYwMjY0OWMtMi40NTgyNzgxLS41OTMzNzc1LTUuMDg2MDkyNy0xLjEwMTk4NjctNy43OTg2NzU1LTEuNDQxMDU5Ni0yLjcxMjU4MjgtLjMzOTA3MjgtNS4zNDAzOTczLS41MDg2MDkyLTcuOTY4MjExOS0uNTA4NjA5Mi01LjY3OTQ3MDIgMC05LjgzMzExMjYgMS4xMDE5ODY3LTEyLjYzMDQ2MzYgMy4zOTA3Mjg0LTIuNzk3MzUxIDIuMjg4NzQxOC00LjE1MzY0MjQgNS41MDk5MzM4LTQuMTUzNjQyNCA5Ljc0ODM0NDQgMCAzLjk4NDEwNiAxLjAxNzIxODYgNi45NTA5OTM0IDMuMTM2NDIzOSA4Ljk4NTQzMDUgMi4wMzQ0MzcxIDIuMTE5MjA1MyA1LjAwMTMyNDUgMy4xMzY0MjM4IDguOTAwNjYyMiAzLjEzNjQyMzh6bTY4LjA2ODg3NDEgOS4xNTQ5NjY5Yy0xLjUyNTgyOCAwLTIuNTQzMDQ2LS4yNTQzMDQ2LTMuMjIxMTkyLS44NDc2ODIxLS42NzgxNDYtLjUwODYwOTMtMS4yNzE1MjMtMS42OTUzNjQzLTEuNzgwMTMyLTMuMzA1OTYwM2wtMTkuOTIwNTMwMi02NS41MjU4Mjc4Yy0uNTA4NjA5My0xLjY5NTM2NDI0LS43NjI5MTM5LTIuNzk3MzUxLS43NjI5MTM5LTMuMzkwNzI4NDggMC0xLjM1NjI5MTM5LjY3ODE0NTctMi4xMTkyMDUzIDIuMDM0NDM3MS0yLjExOTIwNTNoOC4zMDcyODQ4YzEuNjEwNTk2IDAgMi43MTI1ODI3LjI1NDMwNDY0IDMuMzA1OTYwMi44NDc2ODIxMi42NzgxNDU3LjUwODYwOTI3IDEuMTg2NzU1IDEuNjk1MzY0MjQgMS42OTUzNjQzIDMuMzA1OTYwMjdsMTQuMjQxMDU5NyA1Ni4xMTY1NTYyOSAxMy4yMjM4NDEtNTYuMTE2NTU2MjljLjQyMzg0MS0xLjY5NTM2NDI0LjkzMjQ1LTIuNzk3MzUxIDEuNjEwNTk2LTMuMzA1OTYwMjdzMS44NjQ5MDEtLjg0NzY4MjEyIDMuMzkwNzI4LS44NDc2ODIxMmg2Ljc4MTQ1N2MxLjYxMDU5NiAwIDIuNzEyNTgzLjI1NDMwNDY0IDMuMzkwNzI5Ljg0NzY4MjEyLjY3ODE0Ni41MDg2MDkyNyAxLjI3MTUyMyAxLjY5NTM2NDI0IDEuNjEwNTk2IDMuMzA1OTYwMjdsMTMuMzkzMzc3IDU2Ljc5NDcwMTk5IDE0LjY2NDkwMS01Ni43OTQ3MDE5OWMuNTA4NjA5LTEuNjk1MzY0MjQgMS4xMDE5ODctMi43OTczNTEgMS42OTUzNjQtMy4zMDU5NjAyNy42NzgxNDYtLjUwODYwOTI3IDEuNzgwMTMzLS44NDc2ODIxMiAzLjMwNTk2MS0uODQ3NjgyMTJoNy44ODM0NDNjMS4zNTYyOTIgMCAyLjExOTIwNi42NzgxNDU3IDIuMTE5MjA2IDIuMTE5MjA1MyAwIC40MjM4NDEwNi0uMDg0NzY5Ljg0NzY4MjEyLS4xNjk1MzcgMS4zNTYyOTEzOXMtLjI1NDMwNSAxLjE4Njc1NDk3LS41OTMzNzcgMi4xMTkyMDUzbC0yMC40MjkxMzkgNjUuNTI1ODI3NzljLS41MDg2MSAxLjY5NTM2NDMtMS4xMDE5ODcgMi43OTczNTEtMS43ODAxMzMgMy4zMDU5NjAzcy0xLjc4MDEzMi44NDc2ODIxLTMuMjIxMTkyLjg0NzY4MjFoLTcuMjkwMDY2Yy0xLjYxMDU5NiAwLTIuNzEyNTgzLS4yNTQzMDQ2LTMuMzkwNzI5LS44NDc2ODIxLS42NzgxNDUtLjU5MzM3NzUtMS4yNzE1MjMtMS42OTUzNjQzLTEuNjEwNTk2LTMuMzkwNzI4NWwtMTMuMTM5MDczLTU0LjY3NTQ5NjctMTMuMDU0MzA0IDU0LjU5MDcyODVjLS40MjM4NDEgMS42OTUzNjQyLS45MzI0NSAyLjc5NzM1MS0xLjYxMDU5NiAzLjM5MDcyODVzLTEuODY0OTAxLjg0NzY4MjEtMy4zOTA3MjkuODQ3NjgyMXptMTA4LjkyNzE1MiAyLjI4ODc0MTdjLTQuNDA3OTQ3IDAtOC44MTU4OTQtLjUwODYwOTMtMTMuMDU0MzA0LTEuNTI1ODI3OC00LjIzODQxMS0xLjAxNzIxODUtNy41NDQzNzEtMi4xMTkyMDUzLTkuNzQ4MzQ1LTMuMzkwNzI4NS0xLjM1NjI5MS0uNzYyOTEzOS0yLjI4ODc0MS0xLjYxMDU5Ni0yLjYyNzgxNC0yLjM3MzUwOTlzLS41MDg2MDktMS42MTA1OTYtLjUwODYwOS0yLjM3MzUwOTl2LTQuMzIzMTc4OGMwLTEuNzgwMTMyNS42NzgxNDUtMi42Mjc4MTQ2IDEuOTQ5NjY4LTIuNjI3ODE0Ni41MDg2MSAwIDEuMDE3MjE5LjA4NDc2ODIgMS41MjU4MjguMjU0MzA0Ni41MDg2MS4xNjk1MzY0IDEuMjcxNTIzLjUwODYwOTMgMi4xMTkyMDYuODQ3NjgyMSAyLjg4MjExOSAxLjI3MTUyMzIgNi4wMTg1NDMgMi4yODg3NDE4IDkuMzI0NTAzIDIuOTY2ODg3NSAzLjM5MDcyOC42NzgxNDU2IDYuNjk2Njg5IDEuMDE3MjE4NSAxMC4wODc0MTcgMS4wMTcyMTg1IDUuMzQwMzk3IDAgOS40OTQwNC0uOTMyNDUwMyAxMi4zNzYxNTktMi43OTczNTFzNC40MDc5NDctNC41Nzc0ODM0IDQuNDA3OTQ3LTguMDUyOTgwMWMwLTIuMzczNTEtLjc2MjkxNC00LjMyMzE3ODgtMi4yODg3NDItNS45MzM3NzQ5LTEuNTI1ODI3LTEuNjEwNTk2LTQuNDA3OTQ3LTMuMDUxNjU1Ni04LjU2MTU4OS00LjQwNzk0N2wtMTIuMjkxMzkxLTMuODE0NTY5NWMtNi4xODgwNzktMS45NDk2Njg5LTEwLjc2NTU2My00LjgzMTc4ODEtMTMuNTYyOTE0LTguNjQ2MzU3Ni0yLjc5NzM1MS0zLjcyOTgwMTQtNC4yMzg0MS03Ljg4MzQ0MzctNC4yMzg0MS0xMi4yOTEzOTA4IDAtMy41NjAyNjQ5Ljc2MjkxNC02LjY5NjY4ODcgMi4yODg3NDEtOS40MDkyNzE1IDEuNTI1ODI4LTIuNzEyNTgyOCAzLjU2MDI2NS01LjA4NjA5MjcgNi4xMDMzMTItNi45NTA5OTMzNyAyLjU0MzA0Ni0xLjk0OTY2ODg3IDUuNDI1MTY1LTMuMzkwNzI4NDcgOC44MTU4OTQtNC40MDc5NDcwMiAzLjM5MDcyOC0xLjAxNzIxODU0IDYuOTUwOTkzLTEuNDQxMDU5NiAxMC42ODA3OTQtMS40NDEwNTk2IDEuODY0OTAxIDAgMy44MTQ1Ny4wODQ3NjgyMSA1LjY3OTQ3MS4zMzkwNzI4NSAxLjk0OTY2OC4yNTQzMDQ2NCAzLjcyOTgwMS41OTMzNzc0OCA1LjUwOTkzMy45MzI0NTAzMyAxLjY5NTM2NS40MjM4NDEwNiAzLjMwNTk2MS44NDc2ODIxMiA0LjgzMTc4OCAxLjM1NjI5MTM5IDEuNTI1ODI4LjUwODYwOTI3IDIuNzEyNTgzIDEuMDE3MjE4NTQgMy41NjAyNjUgMS41MjU4Mjc4MiAxLjE4Njc1NS42NzgxNDU2OSAyLjAzNDQzNyAxLjM1NjI5MTM5IDIuNTQzMDQ3IDIuMTE5MjA1MjkuNTA4NjA5LjY3ODE0NTcuNzYyOTE0IDEuNjEwNTk2MDMuNzYyOTE0IDIuNzk3MzUxdjMuOTg0MTA1OTFjMCAxLjc4MDEzMjUtLjY3ODE0NiAyLjcxMjU4MjgtMS45NDk2NjkgMi43MTI1ODI4LS42NzgxNDYgMC0xLjc4MDEzMy0uMzM5MDcyOC0zLjIyMTE5Mi0xLjAxNzIxODUtNC44MzE3ODgtMi4yMDM5NzM1LTEwLjI1Njk1NC0zLjMwNTk2MDMtMTYuMjc1NDk3LTMuMzA1OTYwMy00LjgzMTc4OCAwLTguNjQ2MzU4Ljc2MjkxMzktMTEuMjc0MTcyIDIuMzczNTEtMi42Mjc4MTUgMS42MTA1OTYtMy45ODQxMDYgNC4wNjg4NzQxLTMuOTg0MTA2IDcuNTQ0MzcwOCAwIDIuMzczNTA5OS44NDc2ODIgNC40MDc5NDcgMi41NDMwNDYgNi4wMTg1NDMxIDEuNjk1MzY0IDEuNjEwNTk2IDQuODMxNzg4IDMuMjIxMTkyIDkuMzI0NTA0IDQuNjYyMjUxNmwxMi4wMzcwODYgMy44MTQ1Njk2YzYuMTAzMzExIDEuOTQ5NjY4OCAxMC41MTEyNTggNC42NjIyNTE2IDEzLjEzOTA3MiA4LjEzNzc0ODMgMi42Mjc4MTUgMy40NzU0OTY3IDMuODk5MzM4IDcuNDU5NjAyNiAzLjg5OTMzOCAxMS44Njc1NDk3IDAgMy42NDUwMzMxLS43NjI5MTQgNi45NTA5OTMzLTIuMjAzOTczIDkuODMzMTEyNi0xLjUyNTgyOCAyLjg4MjExOTItMy41NjAyNjUgNS40MjUxNjU1LTYuMTg4MDggNy40NTk2MDI2LTIuNjI3ODE0IDIuMTE5MjA1My01Ljc2NDIzOCAzLjY0NTAzMzEtOS40MDkyNzEgNC43NDcwMTk5LTMuODE0NTcgMS4xODY3NTQ5LTcuNzk4Njc2IDEuNzgwMTMyNC0xMi4xMjE4NTUgMS43ODAxMzI0eiIvPjxwYXRoIGZpbGw9IiNmOTAiIGQ9Im0yMzAuOTkzMzc3IDEyMC45NjQyMzhjLTI3Ljg4ODc0MSAyMC41OTg2NzYtNjguNDA3OTQ3IDMxLjUzMzc3NS0xMDMuMjQ3NjgyIDMxLjUzMzc3NS00OC44MjY0ODk3IDAtOTIuODIxMTkxNy0xOC4wNTU2MjktMTI2LjA1MDMzMDc2LTQ4LjA2MzU3Ni0yLjYyNzgxNDU3LTIuMzczNTEtLjI1NDMwNDY0LTUuNTk0NzAxOSAyLjg4MjExOTItMy43Mjk4MDEgMzUuOTQxNzIxODYgMjAuODUyOTggODAuMjc1NDk2NjYgMzMuNDgzNDQzIDEyNi4xMzUwOTk1NiAzMy40ODM0NDMgMzAuOTQwMzk3IDAgNjQuOTMyNDUtNi40NDIzODQgOTYuMjExOTItMTkuNjY2MjI1IDQuNjYyMjUyLTIuMTE5MjA1IDguNjQ2MzU4IDMuMDUxNjU2IDQuMDY4ODc0IDYuNDQyMzg0em0xMS42MTMyNDYtMTMuMjIzODQxYy0zLjU2MDI2NS00LjU3NzQ4My0yMy41NjU1NjMtMi4yMDM5NzMtMzIuNjM1NzYyLTEuMTAxOTg2LTIuNzEyNTgzLjMzOTA3Mi0zLjEzNjQyNC0yLjAzNDQzNy0uNjc4MTQ2LTMuODE0NTcgMTUuOTM2NDI0LTExLjE4OTQwMzkgNDIuMTI5ODAyLTcuOTY4MjExOSA0NS4xODE0NTctNC4yMzg0MTA1IDMuMDUxNjU2IDMuODE0NTY5NS0uODQ3NjgyIDMwLjAwNzk0NjUtMTUuNzY2ODg3IDQyLjU1MzY0MjUtMi4yODg3NDIgMS45NDk2NjktNC40OTI3MTUuOTMyNDUtMy40NzU0OTctMS42MTA1OTYgMy4zOTA3MjktOC4zOTIwNTMgMTAuOTM1MDk5LTI3LjI5NTM2NCA3LjM3NDgzNS0zMS43ODgwOHoiLz48L3N2Zz4=;sketch=1;curveFitting=1;jiggle=2;sketchStyle=rough;disableMultiStroke=0;fillWeight=-1;disableMultiStrokeFill=0;" parent="hs8F6ffxhh7QRecEe4GT-3" vertex="1">
          <mxGeometry x="130" y="143" width="33.55" height="20" as="geometry" />
        </mxCell>
        <mxCell id="g3nPJNQ9NZN2WeUWGuOm-8" value="" style="shape=image;verticalLabelPosition=bottom;labelBackgroundColor=default;verticalAlign=top;aspect=fixed;imageAspect=0;image=data:image/svg+xml,PHN2ZyB4bWxucz0iaHR0cDovL3d3dy53My5vcmcvMjAwMC9zdmciIHdpZHRoPSIyNTYiIHZpZXdCb3g9IjAgMCAyNTYgMTk5IiBoZWlnaHQ9IjE5OSI+PHBhdGggZmlsbD0iIzAwODlkNiIgZD0ibTExOC40MzE5NDcgMTg3LjY5ODAzN2MzMi44OTAwNTYtNS44MTAxIDYwLjA1NTM2My0xMC42MTc5NTcgNjAuMzY3MzYyLTEwLjY4NDEyMWwuNTY3Mjc2LS4xMjAzMDQtMzEuMDUxNDU1LTM2LjkzNDczMWMtMTcuMDc4Mjg3LTIwLjMxNDEwNS0zMS4wNTE0NC0zNy4wMTM1LTMxLjA1MTQ0LTM3LjEwOTc2MyAwLS4xODIyNTcgMzIuMDYzMjUtODguNDc3NTE2OCAzMi4yNDM0OTktODguNzkxODYxLjA2MDI2Ni0uMTA0ODA1IDIxLjg4MDI4MSAzNy41NjY4NTMgNTIuODkzMTQ5IDkxLjMxODgwNyAyOS4wMzQ4MTQgNTAuMzIzNTQyIDUyLjk3MjYxMSA5MS44MTU0ODMgNTMuMTk1MTA2IDkyLjIwNDI5NWwuNDA0NTUyLjcwNjk0Mi05OC42ODQwODQtLjAxMjcyOS05OC42ODQwNjY0LS4wMTI2NzcgNTkuODAwMTAxNC0xMC41NjM4MjJ6bS0xMTguNDMxOTUxMDQtMTEuMjYzMzE0YzAtLjA1MjAwMiAxNC42MzEyOTUwNC0yNS40NTA3ODIgMzIuNTEzOTg4NDQtNTYuNDQxNzU0bDMyLjUxMzk4MzItNTYuMzQ3MjE3MiAzNy44OTEyODk0LTMxLjc5ODQ0NjZjMjAuODQwMjA4LTE3LjQ4OTE0MTggMzcuOTQ3NDEtMzEuODE5ODIxOTIgMzguMDE1OTk2LTMxLjg0NjY3NjAyLjA2ODU4Ni0uMDI1NDEyMTQtLjIwNTU2Mi42NjQ1ODM4Ni0uNjA5MjE5IDEuNTM0MDUyNjEtLjQwMzY1Ny44Njk0Njg3NC0xOC45MTg3MyA0MC41ODIzNTAzMS00MS4xNDQ2MDcyIDg4LjI1MDg0NDYxbC00MC40MTA2NzU0IDg2LjY2OTk4NzYtMjkuMzg1Mzc3Ny4wMzY4NDFjLTE2LjE2MTk1NDEuMDIwMjg0LTI5LjM4NTM3Nzc0LS4wMDU2OTEtMjkuMzg1Mzc3NzQtLjA1NzY1MnoiLz48L3N2Zz4=;sketch=1;curveFitting=1;jiggle=2;sketchStyle=rough;disableMultiStroke=0;fillWeight=-1;disableMultiStrokeFill=0;" parent="hs8F6ffxhh7QRecEe4GT-3" vertex="1">
          <mxGeometry x="187.13" y="138" width="25.73" height="20" as="geometry" />
        </mxCell>
        <mxCell id="g3nPJNQ9NZN2WeUWGuOm-9" value="" style="shape=image;verticalLabelPosition=bottom;labelBackgroundColor=default;verticalAlign=top;aspect=fixed;imageAspect=0;image=data:image/svg+xml,PHN2ZyB4bWxucz0iaHR0cDovL3d3dy53My5vcmcvMjAwMC9zdmciIHdpZHRoPSIyNTUuOTk5OTA4NDQ3MjY1NjIiIHZpZXdCb3g9IjAuMDAwMDgzOTIzMzM5ODQzNzUgMC4wMDAwNjI5NDI1MDQ4ODI4MTI1IDI1NS45OTk5MDg0NDcyNjU2MiAyMDUuNzk3MzkzNzk4ODI4MTIiIHByZXNlcnZlQXNwZWN0UmF0aW89InhNaWRZTWlkIiBoZWlnaHQ9IjIwNS43OTczOTM3OTg4MjgxMiI+PHBhdGggZmlsbD0iI2VhNDMzNSIgZD0ibTE3MC4yNTE3IDU2LjgxODYgMjIuMjUzLTIyLjI1MyAxLjQ4My05LjM3Yy00MC41NTEtMzYuODczLTEwNS4wMTItMzIuNjkyLTE0MS41NjcgOC43MjQtMTAuMTU0IDExLjUwMy0xNy42ODcgMjUuODQ0LTIxLjcwNCA0MC42NTNsNy45Ny0xLjEyMyA0NC41MDUtNy4zMzkgMy40MzYtMy41MTRjMTkuNzk3LTIxLjc0MiA1My4yNy0yNC42NjcgNzYuMTI4LTYuMTY4eiIvPjxwYXRoIGZpbGw9IiM0Mjg1ZjQiIGQ9Im0yMjQuMjA0OCA3My45MTgyYy01LjExNS0xOC44MzYtMTUuNjE2LTM1Ljc2OS0zMC4yMTctNDguNzIybC0zMS4yMzIgMzEuMjMyYzEzLjE4OCAxMC43NzYgMjAuNzAxIDI3LjAxIDIwLjM3OSA0NC4wMzd2NS41NDRjMTUuMzUxIDAgMjcuNzk3IDEyLjQ0NSAyNy43OTcgMjcuNzk2IDAgMTUuMzUyLTEyLjQ0NiAyNy40ODUtMjcuNzk3IDI3LjQ4NWgtNTUuNjcxbC01LjQ2NiA1LjkzNHYzMy4zNGw1LjQ2NiA1LjIzMWg1NS42NzFjMzkuOTMuMzExIDcyLjU1Mi0zMS40OTQgNzIuODYzLTcxLjQyNC4xODgtMjQuMjAzLTExLjc0NS00Ni44OTMtMzEuNzkzLTYwLjQ1MyIvPjxwYXRoIGZpbGw9IiMzNGE4NTMiIGQ9Im03MS44NzA0IDIwNS43OTU3aDU1LjU5M3YtNDQuNTA2aC01NS41OTNjLTMuOTYxLS4wMDEtNy43OTctLjg1Mi0xMS4zOTktMi40OThsLTcuODg3IDIuNDItMjIuNDA5IDIyLjI1My0xLjk1MiA3LjU3NGMxMi41NjcgOS40ODkgMjcuOSAxNC44MjUgNDMuNjQ3IDE0Ljc1NyIvPjxwYXRoIGZpbGw9IiNmYmJjMDUiIGQ9Im03MS44NzA0IDYxLjQyNTVjLTM5LjkzMS4yMzgtNzIuMTA3IDMyLjgwMi03MS44NjkgNzIuNzMyLjEzMyAyMi4yOTggMTAuNTQ3IDQzLjI4OCAyOC4yMjIgNTYuODgxbDMyLjI0OC0zMi4yNDdjLTEzLjk5MS02LjMyMS0yMC4yMDgtMjIuNzg2LTEzLjg4Ny0zNi43NzYgNi4zMi0xMy45OSAyMi43ODYtMjAuMjA3IDM2Ljc3NS0xMy44ODcgNi4xNjUgMi43ODUgMTEuMTAyIDcuNzIzIDEzLjg4NyAxMy44ODdsMzIuMjQ4LTMyLjI0N2MtMTMuNzIxLTE3LjkzNy0zNS4wNDEtMjguNDI0LTU3LjYyNC0yOC4zNDMiLz48L3N2Zz4=;sketch=1;curveFitting=1;jiggle=2;sketchStyle=rough;disableMultiStroke=0;fillWeight=-1;disableMultiStrokeFill=0;" parent="hs8F6ffxhh7QRecEe4GT-3" vertex="1">
          <mxGeometry x="232" y="136" width="31.07" height="25" as="geometry" />
        </mxCell>
        <mxCell id="hs8F6ffxhh7QRecEe4GT-15" value="" style="shape=image;aspect=fixed;image=data:image/svg+xml,PHN2ZyBmaWxsPSJub25lIiBoZWlnaHQ9IjI0IiB2aWV3Qm94PSIwIDAgMjQgMjQiIHdpZHRoPSIyNCIgeG1sbnM9Imh0dHA6Ly93d3cudzMub3JnLzIwMDAvc3ZnIj48ZyBmaWxsPSIjMDA4MGZmIj48cGF0aCBkPSJtMTIgMTguMDExMXYzLjc4ODljNi40MjIyIDAgMTEuNDExMS02LjIgOS4zMTExLTEyLjkzMzM1LS45MTExLTIuOTMzMzQtMy4yNTU2LTUuMjY2NjctNi4xODg5LTYuMTg4ODktNi43MjIyNS0yLjEwMDAwNC0xMi45MjIyNSAyLjg5OTk5LTEyLjkyMjI1IDkuMzExMTRoMy43ODg4OWMwLTQuMDIyMjYgMy45ODg4OS03LjEzMzM3IDguMjIyMjYtNS42MDAwMyAxLjU2NjYuNTY2NjYgMi44MjIyIDEuODIyMjIgMy4zODg5IDMuMzg4ODkgMS41NDMgNC4yMjk0NC0xLjU3MiA4LjIxNDg0LTUuNTg4OCA4LjIyMjI0di0zLjc2NjdoLTMuNzc3OHYzLjc3Nzh6Ii8+PHBhdGggZD0ibTguMjMzMzggMjAuOTIyMmgtMi45MTExMXYtMi45MTExaDIuOTExMTN6Ii8+PHBhdGggZD0ibTIuODg4OTIgMTguMDExMWgyLjQzMzM1bC0uMDAwMDItMi40MzM0aC0yLjQzMzMzeiIvPjwvZz48L3N2Zz4=;" vertex="1" parent="hs8F6ffxhh7QRecEe4GT-3">
          <mxGeometry x="320" y="210" width="30" height="30" as="geometry" />
        </mxCell>
        <mxCell id="hs8F6ffxhh7QRecEe4GT-16" value="" style="shape=image;aspect=fixed;image=data:image/svg+xml,PHN2ZyBlbmFibGUtYmFja2dyb3VuZD0ibmV3IDAgMCAxMDI0IDEwMjQiIHZpZXdCb3g9IjAgMCAxMDI0IDEwMjQiIHhtbG5zPSJodHRwOi8vd3d3LnczLm9yZy8yMDAwL3N2ZyI+PGNpcmNsZSBjeD0iNTEyIiBjeT0iNTEyIiBmaWxsPSIjMTIzZjZkIiByPSI1MTIiLz48cGF0aCBkPSJtNzAwLjIgNDY2LjUgNjEuMi0xMDYuM2MyMy42IDQxLjYgMzcuMiA4OS44IDM3LjIgMTQxLjEgMCA2OC44LTI0LjMgMTMxLjktNjQuNyAxODEuNGgtMTU4LjFsNDguNy04NC42aC02NC40bDc1LjgtMTMxLjd6bS01NS40LTEyNS4yLTE5Ni41IDM0MS4yLjEuMmgtMTU4LjNjLTQwLjUtNDkuNS02NC43LTExMi42LTY0LjctMTgxLjQgMC01MS40IDEzLjYtOTkuNiAzNy4zLTE0MS4zbDEwMi41IDE3OC4yIDExMy4zLTE5N2gxNjYuM3oiIGZpbGw9IiNmZmYiLz48L3N2Zz4=;" vertex="1" parent="hs8F6ffxhh7QRecEe4GT-3">
          <mxGeometry x="365" y="210" width="30" height="30" as="geometry" />
        </mxCell>
        <mxCell id="hs8F6ffxhh7QRecEe4GT-17" value="" style="shape=image;aspect=fixed;image=data:image/svg+xml,PHN2ZyBlbmFibGUtYmFja2dyb3VuZD0ibmV3IDAgMCAxMDI0IDEwMjQiIHZpZXdCb3g9IjAgMCAxMDI0IDEwMjQiIHhtbG5zPSJodHRwOi8vd3d3LnczLm9yZy8yMDAwL3N2ZyI+PGNpcmNsZSBjeD0iNTEyIiBjeT0iNTEyIiBmaWxsPSIjZDUwYzJkIiByPSI1MTIiLz48ZyBmaWxsPSIjZmZmIj48cGF0aCBkPSJtODIyLjIgNTIzLjJjNi4xLTEuMSAxMS45LTMuNiAxNi45LTcuNCA0LjUtNC44IDYuOC0xMS4yIDYuMy0xNy44IDAtNS4zLTEuNS0xMC42LTQuMi0xNS4xLTQuMS03LTExLjUtMTEuNS0xOS43LTExLjloLTQuMWwtOS41LS4zaC00M2MtMi42IDAtMy43IDEuMS0zLjcgMy43djc1LjNjMCAyLjYgMS4xIDMuNyAzLjcgMy43aDExLjJjMi42IDAgMy43LTEuMSAzLjctMy43di0yNC45aDEzLjdjMyAuMiA1LjkgMS40IDguMSAzLjRsMjEuNyAyMS44YzIgMiA0LjYgMy4yIDcuNCAzLjRoMTYuNmMyLjYgMCAzLjItMS41IDEuNC0zLjR6bS0yLjgtMTYuMWgtMzkuNnYtMTloMzkuNmM0IC41IDcgMy45IDcgOHYyLjljMCA0LjItMyA3LjYtNyA4LjF6Ii8+PHBhdGggZD0ibTc0My44IDUzNS44aC02MS41di0xNS41aDQ5LjFjMi42IDAgMy43LTEuMSAzLjctMy43di05YzAtMi42LTEuMS0zLjctMy43LTMuN2gtNDkuMXYtMTUuNWg2MS42YzIuNiAwIDMuNy0xLjEgMy43LTMuN3YtMTAuM2MwLTIuNi0xLjEtMy43LTMuNy0zLjdoLTc2LjhjLTIuNiAwLTMuNyAxLjEtMy43IDMuN3Y3NS40YzAgMi42IDEuMSAzLjcgMy43IDMuN2g3Ni44YzIuNiAwIDMuNy0xLjEgMy43LTMuN3YtMTAuMmMwLTIuNy0xLjMtMy44LTMuOC0zLjh6Ii8+PHBhdGggZD0ibTY0OS44IDQ5Ny44Yy4xLTUuMy0xLjQtMTAuNC00LjItMTQuOS00LjEtNy4yLTExLjctMTEuOC0yMC0xMi4zaC01Ni40Yy0yLjYgMC0zLjcgMS4xLTMuNyAzLjd2NzUuM2MwIDIuNiAxLjEgMy43IDMuNyAzLjdoMTIuMWMyLjYgMCAzLjctMSAzLjctMy43di02MS40aDMyLjdjNyAwIDEzLjcgNC42IDEzLjcgMTEuNnY0OS45YzAgMi42IDEuMSAzLjcgMy43IDMuN2gxMWMyLjYgMCAzLjctMS4xIDMuNy0zLjd6Ii8+PHBhdGggZD0ibTU0OC4zIDUzNS4zaC01My4xbDUzLjItNDYuN2MyLjItMS43IDMuNS00LjEgMy43LTYuOXYtNy40YzAtMi42LTEuMS0zLjctMy43LTMuN2gtNzdjLTIuNiAwLTMuNyAxLjEtMy43IDMuN3YxMC4zYzAgMi42IDEuMSAzLjcgMy43IDMuN2g0OS4zbC00OS41IDQ2LjRjLTIuMSAxLjctMy41IDQuMS0zLjcgNi45djguMWMwIDIuNiAxLjEgMy43IDMuNyAzLjdoNzYuOWMyLjYgMCAzLjctMS4xIDMuNy0zLjd2LTEwLjdjLjItMi42LS45LTMuNy0zLjUtMy43eiIvPjxwYXRoIGQ9Im00NTAuNCA0NzAuNmgtNzYuOGMtMi42IDAtMy43IDEtMy43IDMuN3YxMC4zYzAgMi42IDEgMy43IDMuNyAzLjdoMjl2NjEuNGMwIDIuNiAxLjEgMy43IDMuNyAzLjdoMTIuM2MyLjYgMCAzLjctMS4xIDMuNy0zLjd2LTYxLjRoMjguMmMyLjYgMCAzLjctMS4xIDMuNy0zLjd2LTEwLjJjLS4xLTIuNi0xLjItMy44LTMuOC0zLjh6Ii8+PHBhdGggZD0ibTM1Mi42IDUzNS44aC02MS40di0xNS41aDQ5LjFjMi42IDAgMy43LTEuMSAzLjctMy43di05YzAtMi42LTEtMy43LTMuNy0zLjdoLTQ5LjF2LTE1LjVoNjEuNGMyLjYgMCAzLjctMS4xIDMuNy0zLjd2LTEwLjNjMC0yLjYtMS4xLTMuNy0zLjctMy43aC03Ni42Yy0yLjYgMC0zLjcgMS4xLTMuNyAzLjd2NzUuNGMwIDIuNiAxLjEgMy43IDMuNyAzLjdoNzYuNmMyLjYgMCAzLjctMS4xIDMuNy0zLjd2LTEwLjJjMC0yLjctMS4xLTMuOC0zLjctMy44eiIvPjxwYXRoIGQ9Im0yNTQuOCA0NzAuNmgtMTEuNmMtMi42IDAtMy43IDEuMS0zLjcgMy43djI5LjNoLTQ2LjF2LTI5LjNjMC0yLjYtMS4xLTMuNy0zLjctMy43aC0xMS43Yy0yLjYgMC0zLjcgMS4xLTMuNyAzLjd2NzUuNGMwIDIuNiAxLjEgMy43IDMuNyAzLjdoMTEuN2MyLjYgMCAzLjctMSAzLjctMy43di0yOS44aDQ2LjJ2MjkuOGMwIDIuNiAxLjEgMy43IDMuNyAzLjdoMTEuNmMyLjYgMCAzLjctMS4xIDMuNy0zLjd2LTc1LjRjLS4xLTIuNS0xLjItMy43LTMuOC0zLjd6Ii8+PC9nPjwvc3ZnPg==;" vertex="1" parent="hs8F6ffxhh7QRecEe4GT-3">
          <mxGeometry x="410" y="210" width="30" height="30" as="geometry" />
        </mxCell>
        <mxCell id="hs8F6ffxhh7QRecEe4GT-38" value="icons rough2js" parent="0" />
        <mxCell id="hs8F6ffxhh7QRecEe4GT-40" value="" style="shape=image;aspect=fixed;image=data:image/svg+xml,PD94bWwgdmVyc2lvbj0iMS4wIiBzdGFuZGFsb25lPSJubyI/Pg0KPHN2ZyB4bWxucz0iaHR0cDovL3d3dy53My5vcmcvMjAwMC9zdmciIHhtbG5zOnhsaW5rPSJodHRwOi8vd3d3LnczLm9yZy8xOTk5L3hsaW5rIiB3aWR0aD0iMzExIiBoZWlnaHQ9IjEwNCIgc3Ryb2tlLWxpbmVjYXA9InJvdW5kIj48ZGVmcz48ZmlsdGVyIGlkPSJwZW5jaWxUZXh0dXJlRmlsdGVyIiB4PSIwJSIgeT0iMCUiIHdpZHRoPSIxMDAlIiBoZWlnaHQ9IjEwMCUiIGZpbHRlclVuaXRzPSJvYmplY3RCb3VuZGluZ0JveCI+PGZlVHVyYnVsZW5jZSB0eXBlPSJmcmFjdGFsTm9pc2UiIGJhc2VGcmVxdWVuY3k9IjIiIG51bU9jdGF2ZXM9IjUiIHN0aXRjaFRpbGVzPSJzdGl0Y2giIHJlc3VsdD0iZjEiLz48ZmVDb2xvck1hdHJpeCB0eXBlPSJtYXRyaXgiIHZhbHVlcz0iMCAwIDAgMCAwLCAwIDAgMCAwIDAsIDAgMCAwIDAgMCwgMCAwIDAgLTEuNSAxLjUiIHJlc3VsdD0iZjIiLz48ZmVDb21wb3NpdGUgb3BlcmF0b3I9ImluIiBpbj0iU291cmNlR3JhcGhpYyIgaW4yPSJmMiIgcmVzdWx0PSJmMyIvPjwvZmlsdGVyPjwvZGVmcz48cmVjdCBmaWxsPSJ3aGl0ZSIgd2lkdGg9IjMxMSIgaGVpZ2h0PSIxMDQiLz48ZyBmaWx0ZXI9InVybCgjcGVuY2lsVGV4dHVyZUZpbHRlcikiPjxwYXRoIGQ9Ik04LjM4MiAxMy43NzQgTDYuOTQgMTcuMjYxIEw2LjgxMSAxNi41MTYgTDUuODk1IDE1LjcyMyBMMy43ODMgMTUuNjA1IEwxLjMzNSAxMy45ODkgTDguNzY2IDEwLjcyMiBMNi4yNDEgMTAuMDE0IEw0LjE1NyA3LjY3OSBMMy43NDkgNy45MzEgTDguMjg4IDguNTggTDkuNjE4IDE0Ljg5NiBNMi45OTEgMTYuMDg0IEw4LjgwMiAxNC45NTQgTDguNzg2IDEyLjU3NiBMMi40MzggMTMuNzY3IEw2LjUyMiAxNS43MzcgTTEzLjQ5NSAxNy45OTYgTDEwLjc3NSA1LjMwNyBMMTIuMTA3IDcuMjAxIEwxNS4xNzQgMTUuNTM2IEwxNS44OSA3LjUyNSBMMTYuMzY4IDcuMDE2IEwyMC4wNzYgMTMuOTc1IEwyMC45NzggNi4wMDYgTDIzLjIwMiA4LjgxIEwyMS42NzEgMTYuNTM2IEwxOS4yMjIgMTcuNjcyIEwxNi43NjIgOC41NDMgTDE1LjM4NCAxOC4xODkgTDEyLjQ0NyAxNS4zNiBNMjYuMTkxIDE5LjM3NSBMMjQuNzYzIDE2LjI4IEwyNy45NDcgMTUuMTA4IEwzMC45NzEgMTUuNjcxIEwyNC45MjEgOS42NTEgTDI1LjM3OCA3LjU1NyBMMzAuMjQzIDguODE0IEwzMS43MjUgNy45MzcgTDI1LjUxMyA5LjYyNSBMMzAuNDQ1IDE0LjM4MiBMMzAuODkgMTguMDUzIEwyNi44ODEgMTcuMzYyIiBzdHJva2U9Im5vbmUiIHN0cm9rZS13aWR0aD0iMCIgZmlsbD0iIzI1MmYzZSIvPjxwYXRoIGQ9Ik05LjQ3OCAxNC4yNjQgQzExLjM0MSAxNi4yNywgOC41MzEgMTUuNDg4LCA5LjYgMTUuMjU0IE05LjQ3OCAxNC4yNjQgQzEwLjIzMSAxMy41NDUsIDExLjA5NCAxMy4yNjcsIDkuNiAxNS4yNTQgTTkuNiAxNS4yNTQgQzkuODk1IDE0LjU4MywgMTEuNjYzIDE0LjQ1MSwgOS45NTYgMTYuMDU1IE05LjYgMTUuMjU0IEMxMS4yNDIgMTMuOTkzLCA4LjcxNyAxNy4yNDUsIDkuOTU2IDE2LjA1NSBNOS45NTYgMTYuMDU1IEM4LjQwMSAxNy45NTUsIDkuNjQzIDE0LjY3OSwgMTAuMDM0IDE2LjMxIE05Ljk1NiAxNi4wNTUgQzExLjE3MSAxNC4wOTYsIDEwLjU1NyAxNy40MywgMTAuMDM0IDE2LjMxIE0xMC4wMzQgMTYuMzEgQzEwLjk3NyAxNS40OTcsIDExLjk1MSAxNi4zMTYsIDkuODIyIDE2LjY0NCBNMTAuMDM0IDE2LjMxIEMxMS4yNzEgMTYuMDEzLCAxMC4zMDYgMTYuNTk5LCA5LjgyMiAxNi42NDQgTTkuODIyIDE2LjY0NCBDOS43MTkgMTYuNzQ5LCA5LjQ2MSAxNi44ODgsIDkuMTIyIDE3LjExMSBNOS44MjIgMTYuNjQ0IEM5LjYgMTYuNzY2LCA5LjQ4OCAxNi44NiwgOS4xMjIgMTcuMTExIE05LjEyMiAxNy4xMTEgQzguMzU2IDE4LjQ5OCwgMTAuODgzIDE2LjMzMywgOC44MzIgMTcuMjExIE05LjEyMiAxNy4xMTEgQzEwLjEwOCAxNi42MTgsIDEwLjgzMyAxNS45NDMsIDguODMyIDE3LjIxMSBNOC44MzIgMTcuMjExIEM3LjA2NiAxNi43NzQsIDYuODY1IDE2LjQ5NywgOC40OTkgMTcuMDU2IE04LjgzMiAxNy4yMTEgQzEwLjAxNiAxNS4wMzIsIDkuNDc5IDE4LjkzNCwgOC40OTkgMTcuMDU2IE04LjQ5OSAxNy4wNTYgQzYuOTM1IDE1LjQ4MSwgOC41MjkgMTguNjksIDguMDk4IDE2LjUzMyBNOC40OTkgMTcuMDU2IEMxMC41MzMgMTYuMDU2LCA2Ljk4MSAxNS42MjYsIDguMDk4IDE2LjUzMyBNOC4wOTggMTYuNTMzIEM4LjI2NSAxNy40OTMsIDkuNTM5IDE2LjgyOSwgNy43NTMgMTUuODc3IE04LjA5OCAxNi41MzMgQzkuNTggMTQuMzU4LCA2Ljg1MyAxNy40MTksIDcuNzUzIDE1Ljg3NyBNNy43NTMgMTUuODc3IEM2LjAxNSAxNi4zNzgsIDUuNjM3IDE3LjEwNywgNC40ODMgMTcuNDEyIE03Ljc1MyAxNS44NzcgQzUuOTU5IDE3Ljg3MSwgNy41MzcgMTcuMzI3LCA0LjQ4MyAxNy40MTIgTTQuNDgzIDE3LjQxMiBDMi41MjggMTcuMzg2LCA0LjY2NiAxNi4xMDUsIDIuMjU4IDE2LjYxMSBNNC40ODMgMTcuNDEyIEM0LjQyMSAxNS41NDQsIDQuMjUzIDE1LjEyMSwgMi4yNTggMTYuNjExIE0yLjI1OCAxNi42MTEgQzEuOTc5IDE3LjA3NSwgLTAuNDQzIDE0LjIxNywgMS40MzUgMTQuNDc1IE0yLjI1OCAxNi42MTEgQzEuOTMxIDE2LjE0NSwgLTAuNjA5IDE0LjQzOSwgMS40MzUgMTQuNDc1IE0xLjQzNSAxNC40NzUgQzIuMTEzIDExLjU3NiwgMC40MzIgMTQuNzQ2LCAyLjQ0OCAxMi4xODQgTTEuNDM1IDE0LjQ3NSBDMC43MjYgMTQuNjAzLCAzLjgzNyAxMy43ODEsIDIuNDQ4IDEyLjE4NCBNMi40NDggMTIuMTg0IEMzLjAzMyAxMS4xODEsIDQuNDE2IDExLjQyMywgNS4xNzMgMTEuMzE2IE0yLjQ0OCAxMi4xODQgQzAuOTc5IDEyLjQzLCAzLjI4NiAxMC45NDYsIDUuMTczIDExLjMxNiBNNS4xNzMgMTEuMzE2IEM0LjYwMiAxMi43MiwgNS41MTMgMTEuNjc0LCA2LjM1MiAxMS40MDUgTTUuMTczIDExLjMxNiBDNC45NCAxMy4zNjIsIDMuODA5IDExLjQ2NSwgNi4zNTIgMTEuNDA1IE02LjM1MiAxMS40MDUgQzYuODQ3IDExLjE2LCA1LjcwNyAxMC4wMDMsIDcuNjMxIDExLjY1IE02LjM1MiAxMS40MDUgQzUuNDQ5IDEyLjI2OSwgNS4zMDYgMTIuOTMyLCA3LjYzMSAxMS42NSBNNy42MzEgMTEuNjUgQzcuNjgzIDExLjQzNSwgNy42OTggMTEuMDQsIDcuNjMxIDEwLjgzOCBNNy42MzEgMTEuNjUgQzcuNjcgMTEuNDMzLCA3LjU5OCAxMS4yNzcsIDcuNjMxIDEwLjgzOCBNNy42MzEgMTAuODM4IEM3LjA1MyAxMC43NDUsIDcuODY0IDkuOSwgNy4xMDggOS4wNTggTTcuNjMxIDEwLjgzOCBDOC44NTQgMTAuMzMsIDguMTk0IDEwLjIxNCwgNy4xMDggOS4wNTggTTcuMTA4IDkuMDU4IEM4LjM5OSA5LjAyMSwgNy44MSA3LjU1LCA1LjI5NSA4LjU0NiBNNy4xMDggOS4wNTggQzQuNzYyIDYuNzA1LCA2Ljc5NSA3LjU5NSwgNS4yOTUgOC41NDYgTTUuMjk1IDguNTQ2IEM2LjY4OSA3LjUyNCwgNC4wNTUgOC43NzQsIDQuMDk0IDguNjkxIE01LjI5NSA4LjU0NiBDNC4zNjUgOS4zNiwgNC4zNjcgOS4wNzIsIDQuMDk0IDguNjkxIE00LjA5NCA4LjY5MSBDMy4yMTMgOS44NzEsIDMuOTU1IDcuMDYsIDIuODkzIDkuMDY5IE00LjA5NCA4LjY5MSBDMy42NiA3LjgwMiwgNS4xODEgNi44MDUsIDIuODkzIDkuMDY5IE0yLjg5MyA5LjA2OSBDMi4xMzcgOC4xMTMsIDQuMzAxIDcuNzIyLCAyLjUwMyA5LjIxNCBNMi44OTMgOS4wNjkgQzQuMTQ1IDguODE3LCA0LjEzMiAxMC41OTQsIDIuNTAzIDkuMjE0IE0yLjUwMyA5LjIxNCBDMC40MzggOS4xOTEsIDMuMTYyIDguNjgsIDIuMzI1IDkuMjQ3IE0yLjUwMyA5LjIxNCBDMy4xNzIgOC4yODIsIDIuMDk3IDkuODIsIDIuMzI1IDkuMjQ3IE0yLjMyNSA5LjI0NyBDMi4xNCA5Ljc2MSwgMS4wODEgOS40MTgsIDIuMDkyIDguOTAyIE0yLjMyNSA5LjI0NyBDMS4xNjYgMTEuNDYyLCAwLjM4MiA4LjI1NywgMi4wOTIgOC45MDIgTTIuMDkyIDguOTAyIEMyLjA3OCA4Ljc1MiwgMi4wNzMgOC41MDUsIDIuMDkyIDguMzU3IE0yLjA5MiA4LjkwMiBDMi4xMjQgOC42OTUsIDIuMDggOC41MSwgMi4wOTIgOC4zNTcgTTIuMDkyIDguMzU3IEMwLjMzNSA3LjIyNSwgMS45MTEgOC4xNTgsIDIuMTY5IDcuOTY4IE0yLjA5MiA4LjM1NyBDMi4yOCA5Ljk0NywgLTAuMDQgOC4zLCAyLjE2OSA3Ljk2OCBNMi4xNjkgNy45NjggQzEuNiA4LjQ1MiwgMC43MTIgNi4yNywgMi40ODEgNy43MzQgTTIuMTY5IDcuOTY4IEMwLjU3NCA5LjU0MiwgMi4zMTkgOS45NzIsIDIuNDgxIDcuNzM0IE0yLjQ4MSA3LjczNCBDMC45OTIgNS45NzIsIDUuMDY5IDUuNDY1LCAzLjg4MyA3LjIzNCBNMi40ODEgNy43MzQgQzIuMDI0IDcuMjAxLCA0LjUyNyA2Ljc2MywgMy44ODMgNy4yMzQgTTMuODgzIDcuMjM0IEM0LjMxMSA5LjAwOSwgNC4xNDQgNS42NTgsIDUuNjE4IDcuMDIyIE0zLjg4MyA3LjIzNCBDNS41OTkgNi45MjksIDUuNDk3IDYuMTQ0LCA1LjYxOCA3LjAyMiBNNS42MTggNy4wMjIgQzUuNjIzIDUuNDk1LCA2LjQ3OSA3LjQzLCA4LjUzMiA3LjkyMyBNNS42MTggNy4wMjIgQzcuMzk3IDguNjg3LCA5LjQ1MSA1LjY2NywgOC41MzIgNy45MjMgTTguNTMyIDcuOTIzIEM4LjU0OSA2LjkzNywgMTAuNzI2IDcuOTI3LCA5LjQ1NSAxMC42NiBNOC41MzIgNy45MjMgQzkuNzk0IDkuNDQ2LCAxMC42NDcgMTAuNzMsIDkuNDU1IDEwLjY2IE05LjQ1NSAxMC42NiBDOS4yMzQgMTEuNzA1LCA5LjM0MSAxMi42MzgsIDkuNDU1IDE0LjI2NCBNOS40NTUgMTAuNjYgQzkuNTEgMTEuNTM2LCA5LjUyMyAxMi4zMzYsIDkuNDU1IDE0LjI2NCBNOS40NTUgMTQuMjY0IEM5LjQ1OSAxNC4yNjEsIDkuNDY4IDE0LjI2MywgOS40NzggMTQuMjY0IE05LjQ1NSAxNC4yNjQgQzkuNDU5IDE0LjI2MywgOS40NjQgMTQuMjYzLCA5LjQ3OCAxNC4yNjQgTTQuOTYxIDE1Ljk1NCBDNS4zMjYgMTQuNzAzLCA2LjI1OCAxNC44OSwgNi4xMDcgMTUuNzU0IE00Ljk2MSAxNS45NTQgQzYuNjA0IDE0Ljk2OSwgMy44OTEgMTcuNDQ5LCA2LjEwNyAxNS43NTQgTTYuMTA3IDE1Ljc1NCBDNi42NDQgMTYuNTg2LCA1LjI2IDE2LjE2OSwgNy4xNjQgMTUuMDQyIE02LjEwNyAxNS43NTQgQzguMzYyIDE2LjkyNiwgNS4wNzcgMTUuOTk4LCA3LjE2NCAxNS4wNDIgTTcuMTY0IDE1LjA0MiBDOC45NjkgMTQuNTk4LCA3LjEwNyAxNi4yNzYsIDcuNTQyIDE0LjMzIE03LjE2NCAxNS4wNDIgQzkuNTc3IDE0LjQ0NywgOS4zNzMgMTIuNDYyLCA3LjU0MiAxNC4zMyBNNy41NDIgMTQuMzMgQzkuMDkgMTMuMzQ5LCA2LjEgMTIuMzUyLCA3LjY1MyAxMy4zNjMgTTcuNTQyIDE0LjMzIEM5LjM4OSAxNC4yNjYsIDcuMzE1IDEzLjU0NiwgNy42NTMgMTMuMzYzIE03LjY1MyAxMy4zNjMgQzcuNjM2IDEzLjIzMywgNy42MDQgMTMuMTA1LCA3LjY1MyAxMi44OTUgTTcuNjUzIDEzLjM2MyBDNy42NjcgMTMuMjY4LCA3LjY0MSAxMy4xNiwgNy42NTMgMTIuODk1IE03LjY1MyAxMi44OTUgQzUuODQ2IDExLjU1MiwgNS44MjMgMTQuMjg2LCA2LjYzIDEyLjcwNiBNNy42NTMgMTIuODk1IEM3Ljc5NCAxNS4wOTUsIDUuMzI2IDEzLjMyMywgNi42MyAxMi43MDYgTTYuNjMgMTIuNzA2IEM2Ljk4NyAxMi4xMjQsIDcuMzI3IDEwLjY0NSwgNS41ODQgMTIuNjQgTTYuNjMgMTIuNzA2IEM3Ljc2NyAxNC42MDgsIDQuMjAxIDEzLjYwOSwgNS41ODQgMTIuNjQgTTUuNTg0IDEyLjY0IEMzLjM2OCAxMi41NjksIDIuMzA4IDE0LjMyNSwgMy45MjcgMTMuMDg1IE01LjU4NCAxMi42NCBDMi44MTYgMTMuMjQyLCAyLjIyIDExLjk3MywgMy45MjcgMTMuMDg1IE0zLjkyNyAxMy4wODUgQzEuNzUyIDEyLjE5MSwgMi4wMzUgMTMuNzc5LCAzLjM4MiAxNC4zNjQgTTMuOTI3IDEzLjA4NSBDMi4xNzIgMTMuOTgzLCA0LjM4NCAxMS44NjUsIDMuMzgyIDE0LjM2NCBNMy4zODIgMTQuMzY0IEM1LjMyMyAxMy45MDMsIDQuMzQ0IDE0Ljc5LCAzLjc5NCAxNS41NDMgTTMuMzgyIDE0LjM2NCBDMS44NDUgMTMuMjMsIDMuMzkzIDE1LjkwNywgMy43OTQgMTUuNTQzIE0zLjc5NCAxNS41NDMgQzUuMDQ1IDE3Ljc5MSwgMy41NDggMTUuNTA3LCA0Ljk2MSAxNS45NTQgTTMuNzk0IDE1LjU0MyBDNC45OTUgMTQuNTY3LCA2LjY2MyAxNy4yMDIsIDQuOTYxIDE1Ljk1NCBNNC45NjEgMTUuOTU0IEM0Ljk2MSAxNS45NTQsIDQuOTYxIDE1Ljk1NCwgNC45NjEgMTUuOTU0IE00Ljk2MSAxNS45NTQgQzQuOTYxIDE1Ljk1NCwgNC45NjEgMTUuOTU0LCA0Ljk2MSAxNS45NTQgTTEzLjg5NCAxNy4xNTYgQzE1LjU4NCAxNi44MzEsIDExLjg4MSAxNy45MjUsIDEzLjQ3MSAxNy4wNDQgTTEzLjg5NCAxNy4xNTYgQzE1LjA2OSAxOC4yMDIsIDExLjI3NCAxNS42ODksIDEzLjQ3MSAxNy4wNDQgTTEzLjQ3MSAxNy4wNDQgQzE0LjQ0IDE3LjgwMywgMTMuNDUzIDE4Ljc4MiwgMTMuMjM3IDE2LjYxMSBNMTMuNDcxIDE3LjA0NCBDMTQuMzQ4IDE3LjA4MiwgMTIuMTI4IDE3LjE5NywgMTMuMjM3IDE2LjYxMSBNMTMuMjM3IDE2LjYxMSBDMTIuMTEyIDE0LjI5LCAxMS40ODcgMTIuNTMsIDEwLjYyMyA4LjAxMiBNMTMuMjM3IDE2LjYxMSBDMTIuNTQxIDE0LjAzNiwgMTEuNTcyIDExLjUwMSwgMTAuNjIzIDguMDEyIE0xMC42MjMgOC4wMTIgQzEwLjY0NSA3LjEyOSwgMTAuNTA0IDcuNDQxLCAxMC41MjMgNy41NjcgTTEwLjYyMyA4LjAxMiBDMTIuMTQxIDkuNjA4LCAxMS4wMTggOC4wNDgsIDEwLjUyMyA3LjU2NyBNMTAuNTIzIDcuNTY3IEM5LjkxNCA3LjM0LCA4Ljk5OCA4Ljc1NCwgMTAuNzkgNy4yODkgTTEwLjUyMyA3LjU2NyBDMTEuODEyIDUuMjk5LCAxMi42ODcgOS40NzksIDEwLjc5IDcuMjg5IE0xMC43OSA3LjI4OSBDMTEuMDg0IDcuMzYyLCAxMS40MzQgNy4xOTUsIDExLjg4IDcuMjg5IE0xMC43OSA3LjI4OSBDMTEuMTM1IDcuMjIxLCAxMS41MTYgNy4yNzEsIDExLjg4IDcuMjg5IE0xMS44OCA3LjI4OSBDMTIuMDc5IDYuMTI2LCAxMi40NyA4LjAwOSwgMTIuMzE0IDcuNCBNMTEuODggNy4yODkgQzEwLjQ4NSA3Ljg3LCAxMy4yIDcuMjQ3LCAxMi4zMTQgNy40IE0xMi4zMTQgNy40IEMxMi4xMTcgOC43NzIsIDEyLjY0MiA3Ljc0NSwgMTIuNTM3IDcuODM0IE0xMi4zMTQgNy40IEMxMS4xIDUuODcxLCAxMi4yMzIgNi40NywgMTIuNTM3IDcuODM0IE0xMi41MzcgNy44MzQgQzEzLjI4OSA5LjI0OSwgMTMuMjk4IDExLjYsIDE0LjQwNSAxNS4xOTggTTEyLjUzNyA3LjgzNCBDMTMuMjkxIDEwLjE3NiwgMTMuOTQ4IDEyLjczOSwgMTQuNDA1IDE1LjE5OCBNMTQuNDA1IDE1LjE5OCBDMTUuMzU4IDEzLjM5MiwgMTUuODIyIDExLjg3OSwgMTYuMTQxIDcuODM0IE0xNC40MDUgMTUuMTk4IEMxNS40NTcgMTIuNjY2LCAxNS40NjkgOS40NDcsIDE2LjE0MSA3LjgzNCBNMTYuMTQxIDcuODM0IEMxNS42MTggOC43OTksIDE2LjgwMiA3LjQ2OCwgMTYuMzUyIDcuNCBNMTYuMTQxIDcuODM0IEMxNC45ODIgNS42NDcsIDE2LjcxNSA1Ljg3NCwgMTYuMzUyIDcuNCBNMTYuMzUyIDcuNCBDMTUuNzMxIDUuNzMsIDE2Ljk4NyA4LjAzLCAxNi43OTcgNy4yODkgTTE2LjM1MiA3LjQgQzE3LjU4NiA4LjIxOSwgMTcuNjE3IDcuMjQyLCAxNi43OTcgNy4yODkgTTE2Ljc5NyA3LjI4OSBDMTcuMTI1IDcuMzQ1LCAxNy4zNDIgNy4zODIsIDE3LjY4NyA3LjI4OSBNMTYuNzk3IDcuMjg5IEMxNi45OTUgNy4zMTUsIDE3LjI0NiA3LjIzMiwgMTcuNjg3IDcuMjg5IE0xNy42ODcgNy4yODkgQzE2Ljc5NSA4LjUzOCwgMTYuMzU1IDUuNDQ0LCAxOC4xMzIgNy40IE0xNy42ODcgNy4yODkgQzE5LjU1NyA3LjQ1NSwgMTguMDYzIDUuNjkyLCAxOC4xMzIgNy40IE0xOC4xMzIgNy40IEMxNi44MSA3LjQyOCwgMTguNTU2IDguMzI0LCAxOC4zNDMgNy44MzQgTTE4LjEzMiA3LjQgQzE2Ljk1OCA1LjYwNiwgMTYuOTU1IDkuMjUsIDE4LjM0MyA3LjgzNCBNMTguMzQzIDcuODM0IEMxOS4yNjUgOS41NTksIDE4LjM4MiAxMC44ODgsIDIwLjEwMSAxNS4yODcgTTE4LjM0MyA3LjgzNCBDMTguOTk4IDEwLjQwMiwgMTkuNzI2IDEyLjY0LCAyMC4xMDEgMTUuMjg3IE0yMC4xMDEgMTUuMjg3IEMyMC4wNTQgMTIuMzI5LCAyMS4zMDggMTAuMTg0LCAyMi4wMjUgNy44MzQgTTIwLjEwMSAxNS4yODcgQzIwLjg3NSAxMy43NzEsIDIxLjI0MSAxMS44NTEsIDIyLjAyNSA3LjgzNCBNMjIuMDI1IDcuODM0IEMyMC44MjIgNy4zMDgsIDIzLjk0NiA3LjY1MiwgMjIuMjQ3IDcuNCBNMjIuMDI1IDcuODM0IEMyMi4zMzMgNi42OTYsIDIwLjg0MyA4LjgzMywgMjIuMjQ3IDcuNCBNMjIuMjQ3IDcuNCBDMjAuODcyIDguNjUyLCAyMi40MzIgOC40MDksIDIyLjY4MSA3LjI4OSBNMjIuMjQ3IDcuNCBDMjAuOTU2IDcuMDc1LCAyMS41NDQgNi4xNTQsIDIyLjY4MSA3LjI4OSBNMjIuNjgxIDcuMjg5IEMyMy4wMTUgNy4zLCAyMy4yNTEgNy4zNCwgMjMuNzE2IDcuMjg5IE0yMi42ODEgNy4yODkgQzIyLjk0NSA3LjI1OSwgMjMuMTU1IDcuMjgyLCAyMy43MTYgNy4yODkgTTIzLjcxNiA3LjI4OSBDMjUuMDUzIDcuOTE5LCAyNC45MjMgNS41NCwgMjMuOTk0IDcuNTY3IE0yMy43MTYgNy4yODkgQzIyLjU1NSA1LjY2OSwgMjMuMTkxIDYuNjUxLCAyMy45OTQgNy41NjcgTTIzLjk5NCA3LjU2NyBDMjUuNzQ4IDYuMDA4LCAyNC43NDMgOC40NjUsIDIzLjk3MSA3Ljc0NSBNMjMuOTk0IDcuNTY3IEMyNS45OSA5Ljc0MywgMjMuMzkzIDcuMjQ3LCAyMy45NzEgNy43NDUgTTIzLjk3MSA3Ljc0NSBDMjMuNSA2LjU5MiwgMjMuNzc3IDYuOTM1LCAyMy44OTQgOC4wMjMgTTIzLjk3MSA3Ljc0NSBDMjQuMDkgNy4yNjYsIDIyLjA2NCA4LjcxOCwgMjMuODk0IDguMDIzIE0yMy44OTQgOC4wMjMgQzIzLjI2MyAxMC42MywgMjEuMjQ1IDE0LjU5OCwgMjEuMjEzIDE2LjYyMiBNMjMuODk0IDguMDIzIEMyMy4wODggMTAuODcxLCAyMS43OTggMTQuMDkxLCAyMS4yMTMgMTYuNjIyIE0yMS4yMTMgMTYuNjIyIEMyMi40MDkgMTUuNzQ3LCAyMS42NDMgMTUuNjIxLCAyMC45NzkgMTcuMDU2IE0yMS4yMTMgMTYuNjIyIEMyMC4wOTUgMTkuMDgyLCAyMi41NjUgMTkuMDYsIDIwLjk3OSAxNy4wNTYgTTIwLjk3OSAxNy4wNTYgQzIxLjQyNiAxNy4yMzUsIDIxLjMxMiAxNi4xNTQsIDIwLjU1NyAxNy4xNjcgTTIwLjk3OSAxNy4wNTYgQzIyLjExOCAxNi40OTUsIDIyLjIyNCAxNy44OTgsIDIwLjU1NyAxNy4xNjcgTTIwLjU1NyAxNy4xNjcgQzIwLjE4NSAxNy4yMzUsIDE5LjkyOSAxNy4yMjksIDE5LjYgMTcuMTY3IE0yMC41NTcgMTcuMTY3IEMyMC4yNzQgMTcuMTc0LCAxOS45NDYgMTcuMTYxLCAxOS42IDE3LjE2NyBNMTkuNiAxNy4xNjcgQzE5LjQxNCAxOC4zMTQsIDE3LjkyMyAxOC4yNjgsIDE5LjE1NSAxNy4wNTYgTTE5LjYgMTcuMTY3IEMyMC4zNyAxOC4xOTEsIDE5LjkxMiAxNi43NSwgMTkuMTU1IDE3LjA1NiBNMTkuMTU1IDE3LjA1NiBDMjAuMDU1IDE4LjA3NSwgMTcuNTYyIDE3LjI1NSwgMTguOTQ0IDE2LjYxMSBNMTkuMTU1IDE3LjA1NiBDMTkuMzk4IDE2Ljk5MywgMTkuMDI5IDE4Ljk5MiwgMTguOTQ0IDE2LjYxMSBNMTguOTQ0IDE2LjYxMSBDMTguMTU3IDE1LjA2LCAxOC4zOSAxNC4wNDQsIDE3LjIyIDkuNDM2IE0xOC45NDQgMTYuNjExIEMxOC4yODEgMTQuNTk4LCAxNy44MTcgMTIuMzksIDE3LjIyIDkuNDM2IE0xNy4yMiA5LjQzNiBDMTcuMjM1IDEyLjU3NiwgMTYuMzE4IDE0LjQ1NSwgMTUuNTA3IDE2LjYgTTE3LjIyIDkuNDM2IEMxNi43NDcgMTEuNjY3LCAxNi4xMDQgMTMuOTA2LCAxNS41MDcgMTYuNiBNMTUuNTA3IDE2LjYgQzE2LjkzMiAxNS4wNDgsIDE0Ljk1MSAxNy4wNjMsIDE1LjI5NSAxNy4wNDQgTTE1LjUwNyAxNi42IEMxNC4zMTQgMTcuODMxLCAxNC45NTQgMTguMjE5LCAxNS4yOTUgMTcuMDQ0IE0xNS4yOTUgMTcuMDQ0IEMxNC40NTYgMTYuODg2LCAxNi42MjkgMTguODIzLCAxNC44NSAxNy4xNTYgTTE1LjI5NSAxNy4wNDQgQzE2LjA0MiAxNS44MzYsIDE1LjE2NCAxOC40MDksIDE0Ljg1IDE3LjE1NiBNMTQuODUgMTcuMTU2IEMxNC42NTUgMTcuMjQ5LCAxNC40ODEgMTcuMTkxLCAxMy44OTQgMTcuMTU2IE0xNC44NSAxNy4xNTYgQzE0LjUyMSAxNy4xMjMsIDE0LjEyMiAxNy4xNjYsIDEzLjg5NCAxNy4xNTYgTTI4LjE4NyAxNy40NTYgQzI5LjUwOCAxNS42MTksIDI2LjU1NiAxNy4xMywgMjYuNDc0IDE3LjI1NiBNMjguMTg3IDE3LjQ1NiBDMjguNjUyIDE2LjYwMywgMjYuMjEgMTYuNTczLCAyNi40NzQgMTcuMjU2IE0yNi40NzQgMTcuMjU2IEMyNS4zODggMTcuNjkxLCAyNS4yNjkgMTcuNiwgMjUuMTk1IDE2LjgxMSBNMjYuNDc0IDE3LjI1NiBDMjUuMDY1IDE2LjA1NSwgMjYuNDIyIDE3LjM1MiwgMjUuMTk1IDE2LjgxMSBNMjUuMTk1IDE2LjgxMSBDMjYuNzk1IDE3LjkxNCwgMjIuOTE4IDE1LjU4NywgMjQuODUgMTYuNDk5IE0yNS4xOTUgMTYuODExIEMyNi4xNjcgMTcuMDEsIDI1LjYzNCAxNi41NSwgMjQuODUgMTYuNDk5IE0yNC44NSAxNi40OTkgQzI2LjA1MiAxOC4zMDUsIDI0Ljg2MyAxNy4xOSwgMjQuNzg0IDE2LjE4OCBNMjQuODUgMTYuNDk5IEMyMy40MzMgMTQuNDE0LCAyNC4xNTIgMTcuMzI3LCAyNC43ODQgMTYuMTg4IE0yNC43ODQgMTYuMTg4IEMyNC43ODEgMTYuMDMzLCAyNC44MTcgMTUuODM5LCAyNC43ODQgMTUuNjIxIE0yNC43ODQgMTYuMTg4IEMyNC43ODYgMTYuMDQzLCAyNC43NzUgMTUuODg4LCAyNC43ODQgMTUuNjIxIE0yNC43ODQgMTUuNjIxIEMyNS41NDEgMTQuMzIsIDI0LjU4OCAxNS4yMDUsIDI1LjAzOSAxNS4yNzYgTTI0Ljc4NCAxNS42MjEgQzI1LjAyOCAxNS40MSwgMjQuMDAzIDEzLjcyOCwgMjUuMDM5IDE1LjI3NiBNMjUuMDM5IDE1LjI3NiBDMjcuMDMgMTMuODgsIDIzLjkwNSAxNy4wNDQsIDI1LjI0IDE1LjMwOSBNMjUuMDM5IDE1LjI3NiBDMjQuNjY1IDEzLjI5NCwgMjMuMzAyIDEzLjM2MywgMjUuMjQgMTUuMzA5IE0yNS4yNCAxNS4zMDkgQzI0LjI0OSAxNC43NTQsIDI0LjUzNyAxMy40NDUsIDI1LjUxOCAxNS40MiBNMjUuMjQgMTUuMzA5IEMyNS45MSAxNi44NDQsIDI3LjcwMSAxNS45NzUsIDI1LjUxOCAxNS40MiBNMjUuNTE4IDE1LjQyIEMyNy41MzcgMTUuOTcyLCAyNC41MDkgMTYuMzQ2LCAyNi43NDEgMTUuODEgTTI1LjUxOCAxNS40MiBDMjYuODA3IDE0LjY1MiwgMjYuMzQ1IDEzLjg2MiwgMjYuNzQxIDE1LjgxIE0yNi43NDEgMTUuODEgQzI1Ljc4MyAxNC4xMTksIDI5LjQ3NyAxNS45MDEsIDI4LjA2NSAxNS45NDMgTTI2Ljc0MSAxNS44MSBDMjUuNDMgMTYuNjM1LCAyOC4wOSAxNy42MjksIDI4LjA2NSAxNS45NDMgTTI4LjA2NSAxNS45NDMgQzMwLjE1MSAxNC4yODQsIDMwLjk3NyAxNS4yOSwgMjkuNjg5IDE1LjU3NiBNMjguMDY1IDE1Ljk0MyBDMjYuOTY3IDE2LjI2MSwgMzAuMTIxIDE1LjkzNCwgMjkuNjg5IDE1LjU3NiBNMjkuNjg5IDE1LjU3NiBDMjguMjI2IDE3LjA0MywgMjguNDc4IDE2LjAzOSwgMzAuMjY3IDE0LjUxOSBNMjkuNjg5IDE1LjU3NiBDMjguMjMzIDE3LjQsIDI4LjA0NyAxNS40OTEsIDMwLjI2NyAxNC41MTkgTTMwLjI2NyAxNC41MTkgQzMwLjk0OCAxNS41NTUsIDI5LjM1OSAxNS4xNDIsIDI5Ljk2NyAxMy43NDEgTTMwLjI2NyAxNC41MTkgQzMwLjU4NCAxMy42NTEsIDMwLjA5OCAxMi4yMDIsIDI5Ljk2NyAxMy43NDEgTTI5Ljk2NyAxMy43NDEgQzI5LjQ0MiAxNS40MDIsIDI4LjkxMSAxMy43MjgsIDI4Ljg0NCAxMy4xNjIgTTI5Ljk2NyAxMy43NDEgQzI4LjQzMyAxMS44OTMsIDI4Ljg5MyAxNS4xMzgsIDI4Ljg0NCAxMy4xNjIgTTI4Ljg0NCAxMy4xNjIgQzI4LjM2OCAxMy4xOCwgMjcuODY0IDEyLjgyMywgMjcuMjMxIDEyLjY2MiBNMjguODQ0IDEzLjE2MiBDMjguNDIyIDEzLjA1NCwgMjguMDU5IDEyLjg0MSwgMjcuMjMxIDEyLjY2MiBNMjcuMjMxIDEyLjY2MiBDMjYuMjI2IDEzLjY1MSwgMjQuNDYxIDExLjg1LCAyNS40NTEgMTEuNTI3IE0yNy4yMzEgMTIuNjYyIEMyNy45MDQgMTIuMTIxLCAyMy44OTkgMTMuMTk0LCAyNS40NTEgMTEuNTI3IE0yNS40NTEgMTEuNTI3IEMyNC45MTkgMTIuMzQ0LCAyNi42MzYgOC45MjksIDI0Ljg5NSA5LjkxNCBNMjUuNDUxIDExLjUyNyBDMjMuMDc0IDEzLjEzNywgMjYuNDAzIDExLjMwNywgMjQuODk1IDkuOTE0IE0yNC44OTUgOS45MTQgQzIzLjU5MSA5LjYsIDIzLjk1OSA3Ljc5MywgMjUuMTk1IDguNjggTTI0Ljg5NSA5LjkxNCBDMjUuOTI4IDkuNzU4LCAyNi4zNjQgMTAuNTAyLCAyNS4xOTUgOC42OCBNMjUuMTk1IDguNjggQzI1LjczNSAxMC4xNzIsIDI1LjEzMiA4LjU0LCAyNS45OTYgNy43NjggTTI1LjE5NSA4LjY4IEMyNC42MjUgOC41NDksIDI0LjQ0OCA4LjMxMSwgMjUuOTk2IDcuNzY4IE0yNS45OTYgNy43NjggQzI1LjIxIDUuODYyLCAyOC42NDIgNi41NzIsIDI3LjE1MyA3LjE4OSBNMjUuOTk2IDcuNzY4IEMyNy4yMDYgOC40MjUsIDI2LjEzMyA3LjU0MywgMjcuMTUzIDcuMTg5IE0yNy4xNTMgNy4xODkgQzI3LjA2MyA1LjQ2MiwgMjguNjc4IDguNzU0LCAyOC41NTQgNyBNMjcuMTUzIDcuMTg5IEMyNy42NTkgNy44OTYsIDI3Ljk0MSA2LjU2MSwgMjguNTU0IDcgTTI4LjU1NCA3IEMyOC4xNTggNi44NTIsIDI4LjQ1OSA4LjcwMiwgMjkuMyA3LjA0NCBNMjguNTU0IDcgQzI2LjYwNyA1LjQ4MiwgMjcuMDggOC40OTgsIDI5LjMgNy4wNDQgTTI5LjMgNy4wNDQgQzI4LjQxMiA4LjYyMiwgMjguMjQ3IDcuNzYyLCAzMC4wMjMgNy4xNjcgTTI5LjMgNy4wNDQgQzI3LjY4NSA1LjEwNywgMzEuOTY0IDcuMDk0LCAzMC4wMjMgNy4xNjcgTTMwLjAyMyA3LjE2NyBDMjkuMzMgNy45NDksIDI5LjM4MiA4LjIxMywgMzAuNjU3IDcuMzQ1IE0zMC4wMjMgNy4xNjcgQzMxLjIzNiA4LjY2LCAyOS40MTEgOS40NjgsIDMwLjY1NyA3LjM0NSBNMzAuNjU3IDcuMzQ1IEMyOS45MzYgNy43NDMsIDMwLjk1IDguNTU4LCAzMS4xMjQgNy41NDUgTTMwLjY1NyA3LjM0NSBDMzIuNTcyIDcuMzc4LCAzMS45NjcgOC45MDgsIDMxLjEyNCA3LjU0NSBNMzEuMTI0IDcuNTQ1IEMzMC4zNjMgNy4xMzUsIDMwLjQ4NCA3LjIyMiwgMzEuNDU4IDcuODIzIE0zMS4xMjQgNy41NDUgQzMyLjQxMyA3Ljc4MywgMzIuNjM1IDguOTk1LCAzMS40NTggNy44MjMgTTMxLjQ1OCA3LjgyMyBDMjkuOTYgNS45MzUsIDMzLjIxMSA2LjY1LCAzMS41NTggOC4xOSBNMzEuNDU4IDcuODIzIEMzMy4xMjIgOS43OTQsIDMwLjU4OCA5LjgwNSwgMzEuNTU4IDguMTkgTTMxLjU1OCA4LjE5IEMzMS41NDkgOC4zMzgsIDMxLjU2NSA4LjU1MSwgMzEuNTU4IDguNzEzIE0zMS41NTggOC4xOSBDMzEuNTY3IDguMzc3LCAzMS41MjMgOC41MzEsIDMxLjU1OCA4LjcxMyBNMzEuNTU4IDguNzEzIEMzMi41NTIgOS43MzIsIDMwLjY2OCA5LjIxNywgMzEuMzAyIDkuMDY5IE0zMS41NTggOC43MTMgQzMwLjE4MiA4LjQyMywgMzAuMjAzIDcuNzMzLCAzMS4zMDIgOS4wNjkgTTMxLjMwMiA5LjA2OSBDMzIuNjU4IDEwLjA4NywgMjkuNzEgOC42ODgsIDMwLjg3OSA4LjkzNSBNMzEuMzAyIDkuMDY5IEMyOS42MTIgMTEuMTExLCAzMC44NDkgOS4zNTUsIDMwLjg3OSA4LjkzNSBNMzAuODc5IDguOTM1IEMzMC43MjUgNy4yOTIsIDI4LjU2NyA2LjkxMiwgMjguNzQzIDguNTAyIE0zMC44NzkgOC45MzUgQzI5LjkzNSA5LjU0NSwgMjcuODMyIDYuNjU3LCAyOC43NDMgOC41MDIgTTI4Ljc0MyA4LjUwMiBDMjkuMDcyIDcuMjU3LCAyNy44ODUgNy43MjQsIDI3LjI2NCA4LjgxMyBNMjguNzQzIDguNTAyIEMzMC4yMzUgNy4xNzcsIDI5LjEyMiA2LjcxNiwgMjcuMjY0IDguODEzIE0yNy4yNjQgOC44MTMgQzI4LjIxMyAxMC45NDIsIDI1Ljk5MiA4LjIyNCwgMjYuNzQxIDkuODAzIE0yNy4yNjQgOC44MTMgQzI3LjQ5MyA4LjU2MiwgMjguMDUxIDkuNDU5LCAyNi43NDEgOS44MDMgTTI2Ljc0MSA5LjgwMyBDMjguNDQyIDkuMDgzLCAyOC4xOTUgOS4zMDMsIDI3LjA3NSAxMC41OTMgTTI2Ljc0MSA5LjgwMyBDMjcuNzc2IDExLjg0NiwgMjguOTMxIDguMDkzLCAyNy4wNzUgMTAuNTkzIE0yNy4wNzUgMTAuNTkzIEMyOC43MDIgMTAuNDA1LCAyOC43ODMgMTIuMDA1LCAyOC4yOTkgMTEuMjA1IE0yNy4wNzUgMTAuNTkzIEMyOS4zNTIgMTAuNDkyLCAyOS4wODcgOS4xNzUsIDI4LjI5OSAxMS4yMDUgTTI4LjI5OSAxMS4yMDUgQzI5LjA1MSAxMS41MSwgMjkuNDg4IDExLjcxLCAyOS44NzggMTEuNzA1IE0yOC4yOTkgMTEuMjA1IEMyOC43NzkgMTEuMjg4LCAyOS4xNTQgMTEuNDI1LCAyOS44NzggMTEuNzA1IE0yOS44NzggMTEuNzA1IEMzMC4xMjcgMTMuMDk4LCAzMS40MzUgMTQuMjk1LCAzMS42MDIgMTIuNzczIE0yOS44NzggMTEuNzA1IEMzMi40NTQgMTMuMTU4LCAzMy41NDQgMTAuODAxLCAzMS42MDIgMTIuNzczIE0zMS42MDIgMTIuNzczIEMzMi44NzQgMTIuNjczLCAzMy4wNDYgMTIuNzI3LCAzMi4xMTQgMTQuMzMgTTMxLjYwMiAxMi43NzMgQzMyLjIgMTQuNzg4LCAzMC40NjEgMTIuNTI3LCAzMi4xMTQgMTQuMzMgTTMyLjExNCAxNC4zMyBDMzEuNDgxIDEzLjUzMiwgMzEuMzUzIDE0LjkzNSwgMzEuODI1IDE1LjYyMSBNMzIuMTE0IDE0LjMzIEMzMy41ODMgMTMuNzU1LCAzNC4xODggMTUuMTUxLCAzMS44MjUgMTUuNjIxIE0zMS44MjUgMTUuNjIxIEMzMC4wNTIgMTYuMzc3LCAzMS45NzUgMTUuMTM0LCAzMS4wMTMgMTYuNiBNMzEuODI1IDE1LjYyMSBDMzMuMDE3IDE1LjI5OCwgMzAuNzU0IDE1LjQxNiwgMzEuMDEzIDE2LjYgTTMxLjAxMyAxNi42IEMzMC4wOTkgMTguNjc1LCAzMS45MzUgMTcuMjU4LCAyOS43NzggMTcuMjIyIE0zMS4wMTMgMTYuNiBDMzAuMTkyIDE1LjQxNywgMjguMTEzIDE2LjkzOCwgMjkuNzc4IDE3LjIyMiBNMjkuNzc4IDE3LjIyMiBDMjguOTAzIDE2LjA5MywgMzAuMTE3IDE4LjE5LCAyOC4xODcgMTcuNDU2IE0yOS43NzggMTcuMjIyIEMyOC40NTggMTkuMTY4LCAyOS4xODkgMTYuNzE0LCAyOC4xODcgMTcuNDU2IE0yOC4xODcgMTcuNDU2IEMyOC4xODcgMTcuNDU2LCAyOC4xODcgMTcuNDU2LCAyOC4xODcgMTcuNDU2IE0yOC4xODcgMTcuNDU2IEMyOC4xODcgMTcuNDU2LCAyOC4xODcgMTcuNDU2LCAyOC4xODcgMTcuNDU2IiBzdHJva2U9IiMyNTJmM2UiIHN0cm9rZS13aWR0aD0iMSIgZmlsbD0ibm9uZSIvPjwvZz48ZyBmaWx0ZXI9InVybCgjcGVuY2lsVGV4dHVyZUZpbHRlcikiPjxwYXRoIGQ9Ik0yOC41NjIgMjIuMTYzIEwyMi4wNzUgMjQuNzc2IEwxNi4wNDUgMjcuMzQ3IEw2LjQ5NyAyNS4wNDMgTDAuODkxIDE5LjAzIEwxMi44MDUgMjUuNTgxIEwzMC42OTUgMjQuNDk0IE0zMy40NzYgMjEuNzQ1IEwyNi44OTggMjEuNTk4IEwzNC4xMzcgMTguNjkxIEwyOS4zMTEgMjUuOTE1IEwzMi4yIDIwLjEyIiBzdHJva2U9Im5vbmUiIHN0cm9rZS13aWR0aD0iMCIgZmlsbD0iI2ZmOTkwMCIvPjxwYXRoIGQ9Ik0zMC4yOSAyMi44NjIgQzI2Ljk2NyAyNS4xNzMsIDE5LjY3OSAyNi44MzksIDE2Ljc0MSAyNyBNMTYuNzQxIDI3IEMxMS44OTMgMjcuMzE1LCAzLjY1NSAyNi4yNTUsIDAuMjAxIDIwLjY5MyBNMC4yMDEgMjAuNjkzIEMtMC4yMDkgMjIuMTI1LCAtMC40MjggMjAuOTMsIDAuNTc5IDIwLjIwNCBNMC41NzkgMjAuMjA0IEM2Ljc3NSAyNC4zODUsIDkuNDA4IDIyLjkyMiwgMTcuMTMxIDI0LjU5NyBNMTcuMTMxIDI0LjU5NyBDMjIuMjk2IDI0LjM4MSwgMjQuNzkyIDIzLjI5NSwgMjkuNzU2IDIyLjAxNyBNMjkuNzU2IDIyLjAxNyBDMzEuMTM3IDIyLjYwNCwgMzEuNzggMjMuNTQ0LCAzMC4yOSAyMi44NjIgTTMwLjI5IDIyLjg2MiBDMzAuMjkgMjIuODYyLCAzMC4yOSAyMi44NjIsIDMwLjI5IDIyLjg2MiBNMzEuODE0IDIxLjEyNyBDMjkuNTI4IDIwLjM4NywgMjguMzM4IDE5LjM3NiwgMjcuNTMxIDIwLjk4MiBNMjcuNTMxIDIwLjk4MiBDMjguMzMgMjIuNTA5LCAyNi45ODkgMjAuNDI1LCAyNy40NDIgMjAuNDgyIE0yNy40NDIgMjAuNDgyIEMzMS4wMDMgMTguNjY0LCAzMi4yMjcgMjAuMTM5LCAzMy4zNzEgMTkuOTI1IE0zMy4zNzEgMTkuOTI1IEMzNC4yMDIgMjEuNTU0LCAzMy44MzcgMjMuNTA1LCAzMS4zMDIgMjUuNTA5IE0zMS4zMDIgMjUuNTA5IEMyOS4yNTUgMjcuMSwgMzIuNjIgMjQuOTk2LCAzMC44NDYgMjUuMjk4IE0zMC44NDYgMjUuMjk4IEMzMC42NTUgMjUuNTQ5LCAzMi44ODEgMjAuMTQsIDMxLjgxNCAyMS4xMjcgTTMxLjgxNCAyMS4xMjcgQzMxLjgxNCAyMS4xMjcsIDMxLjgxNCAyMS4xMjcsIDMxLjgxNCAyMS4xMjciIHN0cm9rZT0iI2ZmOTkwMCIgc3Ryb2tlLXdpZHRoPSIxIiBmaWxsPSJub25lIi8+PC9nPjxnIGZpbHRlcj0idXJsKCNwZW5jaWxUZXh0dXJlRmlsdGVyKSI+PHBhdGggZD0iTTY4LjgzMSAyMS45MyBMNzUuOTMzIDE5LjkwMSBMNjcuMTI1IDEwLjY3MyBMNzAuMjc0IDMuNjg5IEw4MS44NiAxOS45NzMgTDY0LjE1MiAyMC4wOTQgTDcwLjM2MSAyMS4xNCBNNTcuOTA3IDE4LjA0MyBMNjMuNDc0IDkuMzA2IEw2OS45NTIgMi44ODQgTDYxLjMxOCAxOS41MzMgTDU3LjMgMTcuODA1IiBzdHJva2U9Im5vbmUiIHN0cm9rZS13aWR0aD0iMCIgZmlsbD0iIzAwODlkNiIvPjxwYXRoIGQ9Ik02OS4wMzMgMjAuODY0IEM3My4zMzcgMjAuMjY1LCA3NC4yNTEgMjAuODM3LCA3NS4xIDE5Ljc5IE03NS4xIDE5Ljc5IEM3NS4xMTYgMTkuNzg2LCA3NS4xMjMgMTkuNzg4LCA3NS4xNTcgMTkuNzc4IE03NS4xNTcgMTkuNzc4IEM3NC4zNDYgMTguMDMsIDcyLjcyMyAxNi42MiwgNzIuMDM3IDE2LjA2NiBNNzIuMDM3IDE2LjA2NiBDNjkuOTYyIDEzLjAwNywgNjcuNjA3IDEzLjIyNywgNjguOTE2IDEyLjMzNyBNNjguOTE2IDEyLjMzNyBDNjkuMDYxIDEzLjQ4LCA3My40MjkgNC4xODQsIDcyLjE1NyAzLjQxMyBNNzIuMTU3IDMuNDEzIEM3MS4wNTQgNC45MzUsIDc0LjI4NiA1Ljc5NSwgNzcuNDcyIDEyLjU5MSBNNzcuNDcyIDEyLjU5MSBDNzkuOTMyIDE4LjE1MywgODMuMzYyIDIzLjI2LCA4Mi44MTkgMjEuODU3IE04Mi44MTkgMjEuODU3IEM4Mi44MjYgMjEuODg1LCA4Mi44NSAyMS45MDUsIDgyLjg1OSAyMS45MjggTTgyLjg1OSAyMS45MjggQzc5LjAzMiAyMS45MjYsIDc1LjYxMiAyMi42OTksIDcyLjk0MSAyMS45MjcgTTcyLjk0MSAyMS45MjcgQzcxLjY2NiAyMi42MzMsIDY5LjIzMyAyMS4wOTksIDYzLjAyMyAyMS45MjYgTTYzLjAyMyAyMS45MjYgQzY0Ljg4NyAyMS4yMTksIDY1LjU5OCAyMS4wNDksIDY5LjAzMyAyMC44NjQgTTY5LjAzMyAyMC44NjQgQzY5LjAzMyAyMC44NjQsIDY5LjAzMyAyMC44NjQsIDY5LjAzMyAyMC44NjQgTTU3LjEzMSAxOS43MzIgQzU4Ljk1OSAyMS4xNjksIDU5LjAwNyAxNy44NTksIDYwLjM5OCAxNC4wNiBNNjAuMzk4IDE0LjA2IEM2MS4xOTMgMTIuNjE4LCA2Mi41MTQgMTAuNjczLCA2My42NjYgOC4zOTcgTTYzLjY2NiA4LjM5NyBDNjQuODc0IDcuNTg1LCA2Ni42MDkgNS40ODIsIDY3LjQ3NCA1LjIwMSBNNjcuNDc0IDUuMjAxIEM2OC45OTMgMy45NDcsIDcwLjY4IDMuMTA1LCA3MS4yOTUgMiBNNzEuMjk1IDIgQzcxLjQxNSAzLjExNiwgNjkuNzU2IDIuNzQzLCA3MS4yMzQgMi4xNTQgTTcxLjIzNCAyLjE1NCBDNzEuNzY0IDIuMzc5LCA2OS41ODQgNy40ODgsIDY3LjA5OSAxMS4wMjQgTTY3LjA5OSAxMS4wMjQgQzY0LjgzIDE0Ljc3MywgNjMuNDM2IDE3LjgzNSwgNjMuMDM3IDE5LjczNCBNNjMuMDM3IDE5LjczNCBDNjIuNTE5IDIwLjAxMSwgNjEuMzkyIDE5LjU0NCwgNjAuMDg0IDE5LjczOCBNNjAuMDg0IDE5LjczOCBDNTYuODYxIDIxLjMzMSwgNTcuMzEyIDIxLjE4NSwgNTcuMTMxIDE5LjczMiBNNTcuMTMxIDE5LjczMiBDNTcuMTMxIDE5LjczMiwgNTcuMTMxIDE5LjczMiwgNTcuMTMxIDE5LjczMiIgc3Ryb2tlPSIjMDA4OWQ2IiBzdHJva2Utd2lkdGg9IjEiIGZpbGw9Im5vbmUiLz48L2c+PGcgZmlsdGVyPSJ1cmwoI3BlbmNpbFRleHR1cmVGaWx0ZXIpIj48cGF0aCBkPSJNMTIyLjY2MyA2LjkwNyBDMTIyLjc4MSA1LjcyMywgMTI0LjU1MSA1Ljk3OCwgMTI1LjM2NCA0LjIwNyBDMTI1LjMwMSAzLjk5NSwgMTI1LjM3NyAzLjY1OSwgMTI1LjU0NCAzLjA2OSBDMTIxLjg4OSAtMy4wMzcsIDExMS4yNTUgLTIuNDgzLCAxMDguMzYyIDQuMTI4IEMxMDkuNjM0IDguMTYsIDEwNi42NDEgOC4wOTMsIDEwNS43MjggOS4wNjIgQzEwNi4wOTUgOC44ODgsIDEwNi40MDEgOC44OCwgMTA2LjY5NSA4LjkyNiBDMTA4LjcyMyA5LjMxMiwgMTEwLjMwMSA4LjM4MiwgMTEyLjA5NyA4LjAzNSBDMTEyLjE5IDcuOTE5LCAxMTIuMzE2IDcuNzUsIDExMi41MTQgNy42MDkgQzExOC4wNjggNy44NDUsIDEyMS42MzUgMy45MywgMTIxLjc1MyA2Ljg2IEMxMjIuMDcyIDcuMDA5LCAxMjIuMjE5IDYuODE0LCAxMjIuNjYzIDYuOTA3IiBzdHJva2U9Im5vbmUiIHN0cm9rZS13aWR0aD0iMCIgZmlsbD0iI2VhNDMzNSIvPjxwYXRoIGQ9Ik0xMjIuNjYzIDYuOTA3IEMxMjMuNzkxIDYuMDI4LCAxMjQuODYzIDUuMjQzLCAxMjUuMzY0IDQuMjA3IE0xMjIuNjYzIDYuOTA3IEMxMjMuNTA0IDYuMzUzLCAxMjQuMDY0IDUuNjI3LCAxMjUuMzY0IDQuMjA3IE0xMjUuMzY0IDQuMjA3IEMxMjUuMzgxIDMuODcxLCAxMjUuMzUxIDMuNTMsIDEyNS41NDQgMy4wNjkgTTEyNS4zNjQgNC4yMDcgQzEyNS4zNjggMy45NzUsIDEyNS40OTEgMy42NjIsIDEyNS41NDQgMy4wNjkgTTEyNS41NDQgMy4wNjkgQzEyMi4xNDkgLTAuMTE2LCAxMTIuMTE3IC0wLjE3MiwgMTA4LjM2MiA0LjEyOCBNMTI1LjU0NCAzLjA2OSBDMTE5LjYxNSAtMS43MTMsIDExMS4xMzMgLTAuNzUzLCAxMDguMzYyIDQuMTI4IE0xMDguMzYyIDQuMTI4IEMxMDYuMDMxIDQuNzIsIDEwNC4yNTMgNS43MDIsIDEwNS43MjggOS4wNjIgTTEwOC4zNjIgNC4xMjggQzEwOC43MzEgMy4zMTcsIDEwNy4wNzggNy4wNzcsIDEwNS43MjggOS4wNjIgTTEwNS43MjggOS4wNjIgQzEwNi4xMjQgOS4wMzYsIDEwNi40MjYgOC45MjEsIDEwNi42OTUgOC45MjYgTTEwNS43MjggOS4wNjIgQzEwNi4wOTIgOC45NjQsIDEwNi40NTcgOC45NzYsIDEwNi42OTUgOC45MjYgTTEwNi42OTUgOC45MjYgQzEwOC4zNzYgOC4zOTYsIDEwOS42MzkgOC4yNjksIDExMi4wOTcgOC4wMzUgTTEwNi42OTUgOC45MjYgQzEwOC43NTggOC44NSwgMTEwLjgxIDguMjI5LCAxMTIuMDk3IDguMDM1IE0xMTIuMDk3IDguMDM1IEMxMTIuMjA3IDcuODY3LCAxMTIuMzMgNy43OTksIDExMi41MTQgNy42MDkgTTExMi4wOTcgOC4wMzUgQzExMi4xNzIgNy45NjIsIDExMi4yNzMgNy44MTIsIDExMi41MTQgNy42MDkgTTExMi41MTQgNy42MDkgQzExNi44OTYgNS40NjEsIDExOS43NzUgMy44OTgsIDEyMS43NTMgNi44NiBNMTEyLjUxNCA3LjYwOSBDMTE1LjAyNCA0LjA5OCwgMTE4LjU2MyA2Ljc2MiwgMTIxLjc1MyA2Ljg2IE0xMjEuNzUzIDYuODYgQzEyMi4wMzkgNi44MzUsIDEyMi4yMzEgNi45NjUsIDEyMi42NjMgNi45MDcgTTEyMS43NTMgNi44NiBDMTIxLjk1MiA2Ljg4MywgMTIyLjE2MSA2Ljg4NiwgMTIyLjY2MyA2LjkwNyIgc3Ryb2tlPSIjZWE0MzM1IiBzdHJva2Utd2lkdGg9IjEiIGZpbGw9Im5vbmUiLz48L2c+PGcgZmlsdGVyPSJ1cmwoI3BlbmNpbFRleHR1cmVGaWx0ZXIpIj48cGF0aCBkPSJNMTI5LjIxMSA4Ljk4MyBDMTMwLjkwNiA2LjMwNSwgMTI3LjQ3MiA3LjM0NSwgMTI1LjU0NCAzLjA2OSBDMTI0LjYxMSAzLjc2OSwgMTI0LjU5IDQuNDg3LCAxMjEuNzUzIDYuODYgQzEyMS4yMjMgNS4wNTMsIDEyNy43OTQgOS4wMSwgMTI0LjIyNyAxMi4yMDUgQzEyNC4xNTYgMTIuMzU0LCAxMjQuMjU1IDEyLjY4NiwgMTI0LjIyNyAxMi44NzggQzEyNC4wOTcgMTQuMTQzLCAxMjcuNDA1IDE2LjI1MywgMTI3LjYgMTYuMjUxIEMxMzAuODMxIDE3LjA0NCwgMTI1LjczNCAyMC42MywgMTI0LjIyNyAxOS41ODcgQzEyMC42NzIgMjAuNzM1LCAxMTguNjY1IDE4LjY5NCwgMTE3LjQ3IDE5LjU4NyBDMTE3LjQ3NyAxOS44NjMsIDExNy4yNTMgMTkuODI0LCAxMTYuODA3IDIwLjMwNyBDMTE3LjUzMSAyMS45MTUsIDExNi4xMzggMjMuNjUxLCAxMTYuODA3IDI0LjM1MyBDMTE2Ljk4OSAyNC40NjgsIDExNy4xNjUgMjQuNzYsIDExNy40NyAyNC45ODggQzExOS44MjYgMjQuOTYzLCAxMjEuNDk4IDIzLjc5LCAxMjQuMjI3IDI0Ljk4OCBDMTMyLjEzNyAyMS41OTcsIDEzMi4yODUgMTkuOTYsIDEzMy4wNyAxNi4zMiBDMTM0LjQwOCAxMC42NiwgMTMxLjY2MiAxMy4wMzcsIDEyOS4yMTEgOC45ODMiIHN0cm9rZT0ibm9uZSIgc3Ryb2tlLXdpZHRoPSIwIiBmaWxsPSIjNDI4NWY0Ii8+PHBhdGggZD0iTTEyOS4yMTEgOC45ODMgQzEyNy4zMDIgNy44MTUsIDEyNy44OSA2LjU2OCwgMTI1LjU0NCAzLjA2OSBNMTI5LjIxMSA4Ljk4MyBDMTI4LjMxNyA4Ljc4NSwgMTI5LjMzOSA1LjY4OCwgMTI1LjU0NCAzLjA2OSBNMTI1LjU0NCAzLjA2OSBDMTIzLjkxIDQuNzYzLCAxMjMuMzY4IDUuMjAzLCAxMjEuNzUzIDYuODYgTTEyNS41NDQgMy4wNjkgQzEyNC4yODMgNC4yOTYsIDEyMi43NCA1LjcyNywgMTIxLjc1MyA2Ljg2IE0xMjEuNzUzIDYuODYgQzEyMi42OTkgNy4zMjUsIDEyNC4wODEgOS45NjgsIDEyNC4yMjcgMTIuMjA1IE0xMjEuNzUzIDYuODYgQzEyNC4yNzMgOC42NjcsIDEyNi40ODUgMTAuMDc4LCAxMjQuMjI3IDEyLjIwNSBNMTI0LjIyNyAxMi4yMDUgQzEyNC4yNDUgMTIuNDM3LCAxMjQuMjYxIDEyLjY5NCwgMTI0LjIyNyAxMi44NzggTTEyNC4yMjcgMTIuMjA1IEMxMjQuMjExIDEyLjM3OCwgMTI0LjIyNCAxMi41ODEsIDEyNC4yMjcgMTIuODc4IE0xMjQuMjI3IDEyLjg3OCBDMTI0LjYwNCAxMS45MjUsIDEyOC4wNTUgMTMuNjc3LCAxMjcuNiAxNi4yNTEgTTEyNC4yMjcgMTIuODc4IEMxMjcuMzMxIDE0Ljc1NSwgMTI3Ljg3OCAxMi41MzUsIDEyNy42IDE2LjI1MSBNMTI3LjYgMTYuMjUxIEMxMjcuMTE0IDE2LjYxLCAxMjQuNDk2IDE5LjUzLCAxMjQuMjI3IDE5LjU4NyBNMTI3LjYgMTYuMjUxIEMxMjYuNzcgMjAuMDY4LCAxMjUuMTU4IDE4LjQ1NCwgMTI0LjIyNyAxOS41ODcgTTEyNC4yMjcgMTkuNTg3IEMxMjIuOTk5IDE5Ljk5NCwgMTIxLjQ2OCAxOS4zODksIDExNy40NyAxOS41ODcgTTEyNC4yMjcgMTkuNTg3IEMxMjEuNjcxIDE5Ljg2MSwgMTE5LjIwOSAxOS44OSwgMTE3LjQ3IDE5LjU4NyBNMTE3LjQ3IDE5LjU4NyBDMTE3LjE5NSAxOS43MTgsIDExNy4yMDEgMjAuMDEyLCAxMTYuODA3IDIwLjMwNyBNMTE3LjQ3IDE5LjU4NyBDMTE3LjM0MSAxOS44MjIsIDExNy4xNDcgMTkuOTY4LCAxMTYuODA3IDIwLjMwNyBNMTE2LjgwNyAyMC4zMDcgQzExNi42MDcgMjEuODg0LCAxMTYuNTcgMjIuODIsIDExNi44MDcgMjQuMzUzIE0xMTYuODA3IDIwLjMwNyBDMTE3LjA2NiAyMS4wODgsIDExNi45NTMgMjIuMTI4LCAxMTYuODA3IDI0LjM1MyBNMTE2LjgwNyAyNC4zNTMgQzExNi45NjQgMjQuNDg0LCAxMTcuMjU2IDI0LjcxNSwgMTE3LjQ3IDI0Ljk4OCBNMTE2LjgwNyAyNC4zNTMgQzExNi45NyAyNC41MTgsIDExNy4wODkgMjQuNjIsIDExNy40NyAyNC45ODggTTExNy40NyAyNC45ODggQzExOC45MDcgMjQuNzY2LCAxMjEuNzUxIDI0Ljc4MywgMTI0LjIyNyAyNC45ODggTTExNy40NyAyNC45ODggQzExOS40OTEgMjQuOTM2LCAxMjEuOTA5IDI0Ljk4OCwgMTI0LjIyNyAyNC45ODggTTEyNC4yMjcgMjQuOTg4IEMxMjguNDY3IDI0LjM2NywgMTM0LjkzMyAxOS42NTEsIDEzMy4wNyAxNi4zMiBNMTI0LjIyNyAyNC45ODggQzEyNi44MDUgMjYuOTksIDEzMS40NjEgMjIuODY1LCAxMzMuMDcgMTYuMzIgTTEzMy4wNyAxNi4zMiBDMTM0LjQwNSAxMi42MDYsIDEzMi4wMTkgMTEuMDEyLCAxMjkuMjExIDguOTgzIE0xMzMuMDcgMTYuMzIgQzEzMy43NTIgMTIuMjg3LCAxMzIuMjYyIDkuMzEzLCAxMjkuMjExIDguOTgzIiBzdHJva2U9IiM0Mjg1ZjQiIHN0cm9rZS13aWR0aD0iMSIgZmlsbD0ibm9uZSIvPjwvZz48ZyBmaWx0ZXI9InVybCgjcGVuY2lsVGV4dHVyZUZpbHRlcikiPjxwYXRoIGQ9Ik0xMTAuNzIzIDI0Ljk4OCBDMTExLjUwOCAyNS4zMTksIDExMy45NjIgMjQuNjA3LCAxMTcuNDcgMjQuOTg4IEMxMTguNDI3IDIyLjk2NywgMTE4LjA4OCAyMS4wMjUsIDExNy40NyAxOS41ODcgQzExNi4zNTUgMjAuNTQ2LCAxMTMuMzUxIDE4Ljk0NywgMTEwLjcyMyAxOS41ODcgQzExMy43MzMgMjIuNzgyLCAxMDYuODk0IDE2LjY1NSwgMTA5LjMzOSAxOS4yODQgQzEwOC45NDEgMTkuNTUsIDEwOC41MjYgMTkuNjA5LCAxMDguMzgyIDE5LjU3NyBDMTA3LjQwMSAyMC45NzUsIDEwNS43MyAyMS4xMzEsIDEwNS42NjIgMjIuMjc4IEMxMDUuNjI3IDIyLjU1LCAxMDUuNjkxIDIyLjkzMSwgMTA1LjQyNSAyMy4xOTcgQzEwNC4zMDggMjAuODI5LCAxMDUuNDI4IDI2LjIzLCAxMTAuNzIzIDI0Ljk4OCIgc3Ryb2tlPSJub25lIiBzdHJva2Utd2lkdGg9IjAiIGZpbGw9IiMzNGE4NTMiLz48cGF0aCBkPSJNMTEwLjcyMyAyNC45ODggQzExMi4xOTIgMjUuMjAyLCAxMTQuODIzIDI1LjA4MiwgMTE3LjQ3IDI0Ljk4OCBNMTE3LjQ3IDI0Ljk4OCBDMTE3LjQwNSAyMy4wNTIsIDExNy44NTMgMjAuNzA3LCAxMTcuNDcgMTkuNTg3IE0xMTcuNDcgMTkuNTg3IEMxMTUuNzQ5IDE5LjAxNiwgMTE0LjgwMyAxOS41OTUsIDExMC43MjMgMTkuNTg3IE0xMTAuNzIzIDE5LjU4NyBDMTA5Ljk3MSAxOS42ODgsIDExMC44ODIgMjAuMjAxLCAxMDkuMzM5IDE5LjI4NCBNMTA5LjMzOSAxOS4yODQgQzEwOC45ODEgMTkuMzQzLCAxMDguNzA4IDE5LjQ5OCwgMTA4LjM4MiAxOS41NzcgTTEwOC4zODIgMTkuNTc3IEMxMDcuNTI0IDE5Ljk1NSwgMTA3LjM1NCAyMC42NzgsIDEwNS42NjIgMjIuMjc4IE0xMDUuNjYyIDIyLjI3OCBDMTA1LjY5NCAyMi41MjYsIDEwNS42NTIgMjIuNTk1LCAxMDUuNDI1IDIzLjE5NyBNMTA1LjQyNSAyMy4xOTcgQzEwNS40MjYgMjQuMTA4LCAxMDkuMzIxIDI2Ljc5OSwgMTEwLjcyMyAyNC45ODgiIHN0cm9rZT0iIzM0YTg1MyIgc3Ryb2tlLXdpZHRoPSIxIiBmaWxsPSJub25lIi8+PC9nPjxnIGZpbHRlcj0idXJsKCNwZW5jaWxUZXh0dXJlRmlsdGVyKSI+PHBhdGggZD0iTTExMC43MjMgNy40NjcgQzEwNi4zNjQgNC4wMjUsIDEwMi4wMDggOS44NjksIDEwMiAxNi4yOTQgQzEwMi40NDIgMTYuNjIsIDEwNC4xMzUgMjMuNDk5LCAxMDUuNDI1IDIzLjE5NyBDMTA3LjQzNiAyMS4xNzksIDEwOC4xMzUgMjAuMTg2LCAxMDkuMzM5IDE5LjI4NCBDMTA0LjczMSAxNS41ODUsIDExMC4xNjUgMTguNzE1LCAxMDcuNjU0IDE0LjgyIEMxMDUuMTk5IDE0LjM3MSwgMTEzLjEwMSAxMC43MTYsIDExMi4xMTcgMTMuMTM1IEMxMTUuNzkyIDEwLjUyNSwgMTE2LjQ2MiAxNS40NTYsIDExMy44MDMgMTQuODIgQzExNC41MzEgMTQuMzc2LCAxMTYuMjU4IDEyLjE5LCAxMTcuNzE2IDEwLjkwNiBDMTEzLjU4NSA3LjM2NywgMTE0LjE1NSA5LjU5LCAxMTAuNzIzIDcuNDY3IiBzdHJva2U9Im5vbmUiIHN0cm9rZS13aWR0aD0iMCIgZmlsbD0iI2ZiYmMwNSIvPjxwYXRoIGQ9Ik0xMTAuNzIzIDcuNDY3IEMxMDQuNDM4IDUuNzQ0LCAxMDAuMjk2IDExLjAyOSwgMTAyIDE2LjI5NCBNMTEwLjcyMyA3LjQ2NyBDMTA0LjA5NCA2LjkyLCAxMDIuNTI0IDEzLjE2LCAxMDIgMTYuMjk0IE0xMDIgMTYuMjk0IEMxMDIuMzAzIDIwLjUwNSwgMTA0Ljg3NyAyMC4wMTQsIDEwNS40MjUgMjMuMTk3IE0xMDIgMTYuMjk0IEMxMDAuNjIxIDIwLjgxOCwgMTA0LjM2NyAyMy41OSwgMTA1LjQyNSAyMy4xOTcgTTEwNS40MjUgMjMuMTk3IEMxMDYuMDI1IDIyLjAzMSwgMTA2LjcyNyAyMS41MTMsIDEwOS4zMzkgMTkuMjg0IE0xMDUuNDI1IDIzLjE5NyBDMTA2Ljc2MiAyMS45MzcsIDEwNy40OTkgMjAuNzM2LCAxMDkuMzM5IDE5LjI4NCBNMTA5LjMzOSAxOS4yODQgQzEwOS4wMTkgMTkuNzg4LCAxMDguMTY0IDE2LjY5LCAxMDcuNjU0IDE0LjgyIE0xMDkuMzM5IDE5LjI4NCBDMTA1LjgzMyAxOS4yMjcsIDEwNi45MDggMTYuMTI1LCAxMDcuNjU0IDE0LjgyIE0xMDcuNjU0IDE0LjgyIEMxMDkuNDAzIDEyLjEyLCAxMTAuODI5IDEyLjUwMSwgMTEyLjExNyAxMy4xMzUgTTEwNy42NTQgMTQuODIgQzExMC4yNDUgMTQuNTQ5LCAxMTEuODQ5IDEwLjcwNywgMTEyLjExNyAxMy4xMzUgTTExMi4xMTcgMTMuMTM1IEMxMTQuMjA3IDExLjUyNiwgMTEyLjUxNSAxMy44NjEsIDExMy44MDMgMTQuODIgTTExMi4xMTcgMTMuMTM1IEMxMTUuMDUxIDEzLjQsIDExNC4yNjUgMTYuMTg1LCAxMTMuODAzIDE0LjgyIE0xMTMuODAzIDE0LjgyIEMxMTQuODM2IDE0LjM5NiwgMTE2LjIzNiAxMi44MjQsIDExNy43MTYgMTAuOTA2IE0xMTMuODAzIDE0LjgyIEMxMTQuNjk0IDE0LjA2NywgMTE1LjYyMyAxMi41OTcsIDExNy43MTYgMTAuOTA2IE0xMTcuNzE2IDEwLjkwNiBDMTE1Ljc2MyA3Ljk3NCwgMTExLjY3OCA2LjcwOCwgMTEwLjcyMyA3LjQ2NyBNMTE3LjcxNiAxMC45MDYgQzExNC4zNDYgMTAuOTY3LCAxMTMuNTM3IDguNzksIDExMC43MjMgNy40NjciIHN0cm9rZT0iI2ZiYmMwNSIgc3Ryb2tlLXdpZHRoPSIxIiBmaWxsPSJub25lIi8+PC9nPjxnIGZpbHRlcj0idXJsKCNwZW5jaWxUZXh0dXJlRmlsdGVyKSI+PHBhdGggZD0iTTIwNSA5Ni41MTQgQzIwNS4yMjcgOTguMDkzLCAyMDUuNzYxIDk4LjI3NCwgMjA1IDEwMS4yNSBDMjExLjc3NCAxMDQuNzk0LCAyMTcuODg3IDk1LjIyOSwgMjE2LjYzOSA4NS4wODMgQzIxMy44MDkgNzkuNjYzLCAyMTEuMzU4IDc3LjQ0NywgMjA4LjkwMyA3Ny4zNDcgQzIwMS42ODcgNzYuNzksIDE5Mi45NjMgODQuMTE5LCAxOTIuNzUgODguOTg2IEMxOTQuNjcgODkuODU5LCAxOTYuMzUzIDg5LjUwMSwgMTk3LjQ4NiA4OC45ODYgQzE5Ni4yNDggODMuNzMzLCAyMDEuMjQ5IDc3Ljc1MiwgMjA3Ljc2NCA4MS45ODYgQzIxMy4yODMgODYuMDM0LCAyMTAuNjU5IDgzLjUwNCwgMjEyIDg2LjIyMiBDMjE0LjAxNSA5My40OTMsIDIwOC4zNzYgOTkuODI1LCAyMDUuMDE0IDk2LjUgQzIwNC45ODIgOTYuMDIxLCAyMDQuNDU0IDkzLjYyNiwgMjA1LjAxNCA5MS43OTIgQzIwMy4wNjkgOTIuNzY3LCAyMDIuNjgxIDkyLjEyLCAyMDAuMjkyIDkxLjc5MiBDMjAwLjI0NSA5Mi43MTIsIDIwMC4wOTkgOTQuMjMxLCAyMDAuMjkyIDk2LjUxNCBDMjAyLjIxNiA5NS43NTIsIDIwMi4zMzIgOTcuMDI2LCAyMDUgOTYuNTE0IiBzdHJva2U9Im5vbmUiIHN0cm9rZS13aWR0aD0iMCIgZmlsbD0iIzAwODBmZiIvPjxwYXRoIGQ9Ik0yMDUgOTYuNTE0IEMyMDQuODg5IDk3LjM1MiwgMjA1LjM1MSA5OC43NTMsIDIwNSAxMDEuMjUgTTIwNSAxMDEuMjUgQzIxMy42NzYgMTAwLjU3LCAyMTkuMjUyIDk0LjA2OSwgMjE2LjYzOSA4NS4wODMgTTIxNi42MzkgODUuMDgzIEMyMTUuNDcxIDgxLjExOSwgMjEwLjcyNyA3NywgMjA4LjkwMyA3Ny4zNDcgTTIwOC45MDMgNzcuMzQ3IEMyMDEuMzgzIDczLjg1NCwgMTkyLjIwOSA4MS40NjYsIDE5Mi43NSA4OC45ODYgTTE5Mi43NSA4OC45ODYgQzE5NC4wMTUgODkuMjk2LCAxOTYuMDc3IDg5LjE1OSwgMTk3LjQ4NiA4OC45ODYgTTE5Ny40ODYgODguOTg2IEMxOTguODU3IDgzLjE2MSwgMjAxLjAyMSA3OS43NzMsIDIwNy43NjQgODEuOTg2IE0yMDcuNzY0IDgxLjk4NiBDMjExLjI0IDg0LjY5MiwgMjEyLjQyNiA4My4yNjUsIDIxMiA4Ni4yMjIgTTIxMiA4Ni4yMjIgQzIxMi43MTQgOTAuOTE0LCAyMDkuMTIyIDk2Ljg2MiwgMjA1LjAxNCA5Ni41IE0yMDUuMDE0IDk2LjUgQzIwNS4zNDIgOTUuNTAxLCAyMDUuNDU1IDk0LjA2MiwgMjA1LjAxNCA5MS43OTIgTTIwNS4wMTQgOTEuNzkyIEMyMDMuNTgxIDkxLjkyOCwgMjAxLjIzNiA5Mi4wMDYsIDIwMC4yOTIgOTEuNzkyIE0yMDAuMjkyIDkxLjc5MiBDMTk5Ljg5OCA5My44OTksIDIwMC4xODggOTUuMjkzLCAyMDAuMjkyIDk2LjUxNCBNMjAwLjI5MiA5Ni41MTQgQzIwMi4xMzkgOTYuNDQ3LCAyMDQuMTAyIDk2LjM5MywgMjA1IDk2LjUxNCIgc3Ryb2tlPSIjMDA4MGZmIiBzdHJva2Utd2lkdGg9IjEiIGZpbGw9Im5vbmUiLz48L2c+PGcgZmlsdGVyPSJ1cmwoI3BlbmNpbFRleHR1cmVGaWx0ZXIpIj48cGF0aCBkPSJNMTk5LjgyMiAxMDAuNDUxIEMxOTkuMTgyIDEwMC4xMjMsIDE5OC4xODkgMTAwLjI1OSwgMTk2Ljc5OCA5OS44MDYgQzE5Ni44NDIgOTkuNDg0LCAxOTcuMDI1IDk4LjMzMywgMTk2LjI0NiA5Ni4xNiBDMTk3Ljc0IDk2LjYzLCAxOTkuNDgzIDk2LjI4OSwgMjAwLjMyNSA5NS45MSBDMTk5LjgwNSA5Ny45NDQsIDIwMC44NDcgOTkuMTM3LCAyMDAuNDk5IDk5LjU1OCIgc3Ryb2tlPSJub25lIiBzdHJva2Utd2lkdGg9IjAiIGZpbGw9IiMwMDgwZmYiLz48cGF0aCBkPSJNMjAwLjA5OSAxMDAuMzU2IEMxOTkuNDMyIDk5Ljc4OSwgMTk4LjE0NSA5OS45ODMsIDE5Ni41NzEgOTkuODIyIE0xOTYuNDIyIDEwMC4wMzkgQzE5Ni41MTkgOTguOTA4LCAxOTYuOTI5IDk3LjYwNiwgMTk2LjQ5NCA5Ni4zNjIgTTE5Ni42MDYgOTYuNDc5IEMxOTcuNTkzIDk2LjY2MiwgMTk5LjIzNSA5Ni43OTIsIDIwMC41NDYgOTYuMTUyIE0yMDAuMzEzIDk2LjU1NyBDMjAwLjI0MSA5Ny4wMzQsIDIwMC40NDIgOTcuODc5LCAyMDAuMjkzIDEwMC4zOTgiIHN0cm9rZT0iIzAwODBmZiIgc3Ryb2tlLXdpZHRoPSIxIiBmaWxsPSJub25lIi8+PC9nPjxnIGZpbHRlcj0idXJsKCNwZW5jaWxUZXh0dXJlRmlsdGVyKSI+PHBhdGggZD0iTTE5My4yMTUgOTYuNzk3IEMxOTUuMDMzIDk2LjczOSwgMTk2LjE1OCA5Ni44MzMsIDE5Ni40MzIgOTYuNzg1IEMxOTcuMDI1IDk1LjE1NCwgMTk2LjkyMiA5NC4xMDUsIDE5Ny4xMjQgOTIuOTUgQzE5NS4wNDEgOTMuMjQsIDE5NC4xMjYgOTMuNjY0LCAxOTMuNDYyIDkzLjI4OCBDMTkzLjY2NCA5NC44MiwgMTk0LjEzOSA5NC45OCwgMTkzLjE1NSA5Ni44MTgiIHN0cm9rZT0ibm9uZSIgc3Ryb2tlLXdpZHRoPSIwIiBmaWxsPSIjMDA4MGZmIi8+PHBhdGggZD0iTTE5My41ODMgOTYuMzU4IEMxOTQuNTczIDk2LjU1NiwgMTk2LjExIDk2LjUyNywgMTk2Ljc3NyA5Ni4zOTEgTTE5My41MjIgOTYuMzkzIEMxOTQuNDE2IDk2LjY3NCwgMTk1LjM5OCA5Ni42MTksIDE5Ni42OTEgOTYuNTQ3IE0xOTYuOSA5Ni41NTkgQzE5Ni44NzUgOTUuNDg3LCAxOTYuNzExIDk0LjQ0NiwgMTk2LjU2NyA5My4xOTQgTTE5Ni42NjkgOTYuNDAxIEMxOTYuNzgxIDk1LjQ2NCwgMTk2LjYyIDk0LjI1NCwgMTk2LjU3NCA5My41NjUgTTE5Ni45MjQgOTMuMjcxIEMxOTUuNTM5IDkzLjUsIDE5NC42NzMgOTMuNjYsIDE5My42MiA5My40MzIgTTE5Ni42OSA5My40NzYgQzE5NS41NzcgOTMuNjIzLCAxOTQuODI0IDkzLjUzNiwgMTkzLjcxNyA5My41NzggTTE5My42OTEgOTMuNjM5IEMxOTMuNzQ0IDk0LjUzOSwgMTkzLjc4MiA5NS4wNDYsIDE5My42MjQgOTYuMzY4IE0xOTMuNTM4IDkzLjQzNCBDMTkzLjY5MSA5NC4xLCAxOTMuNjAzIDk0LjgyOSwgMTkzLjQ3OSA5Ni41MzYiIHN0cm9rZT0iIzAwODBmZiIgc3Ryb2tlLXdpZHRoPSIxIiBmaWxsPSJub25lIi8+PC9nPjxnIGZpbHRlcj0idXJsKCNwZW5jaWxUZXh0dXJlRmlsdGVyKSI+PHBhdGggZD0iTTI2NSA4OSBDMjY3Ljg2NiAxMDAuNDg0LCAyNTkuODI5IDEwMS45NzQsIDI1MCAxMDQgQzIzOS45MjYgMTA3LjQwNiwgMjMzLjU4NiA5Ni4yNDYsIDIzNSA4OSBDMjM2LjAzOCA3OS45NjksIDI0MS42ODEgNzEuMTk0LCAyNTAgNzQgQzI1OS40ODIgNzMuNTQsIDI2OC4xNjYgNzguNjk4LCAyNjUgODkgQzI2NSA4OSwgMjY1IDg5LCAyNjUgODkiIHN0cm9rZT0ibm9uZSIgc3Ryb2tlLXdpZHRoPSIwIiBmaWxsPSIjMTIzZjZkIi8+PHBhdGggZD0iTTI2NSA4OSBDMjY0LjM0NSA5OC40NzYsIDI1OC43MzggMTAyLjc1OCwgMjUwIDEwNCBNMjY1IDg5IEMyNjMuNDM0IDk2LjIwNywgMjU3LjU4IDEwNC43OTIsIDI1MCAxMDQgTTI1MCAxMDQgQzI0Mi42MzcgMTA0LjI5MSwgMjM1LjgyNyA5Ny44OTksIDIzNSA4OSBNMjUwIDEwNCBDMjM5LjU1NiAxMDIuODE3LCAyMzQuNzQgOTguNjc1LCAyMzUgODkgTTIzNSA4OSBDMjMzLjA3MiA3OC45NjUsIDI0My4zMjkgNzUuODE1LCAyNTAgNzQgTTIzNSA4OSBDMjM0LjU3OSA4MC4zOTksIDIzOS45NCA3My42OTQsIDI1MCA3NCBNMjUwIDc0IEMyNTcuNzA2IDc0LjU5NCwgMjYzLjc2NyA4MS4yLCAyNjUgODkgTTI1MCA3NCBDMjU3Ljg5NCA3NC4xNSwgMjYyLjg2IDc5LjkyMiwgMjY1IDg5IE0yNjUgODkgQzI2NSA4OSwgMjY1IDg5LCAyNjUgODkgTTI2NSA4OSBDMjY1IDg5LCAyNjUgODksIDI2NSA4OSIgc3Ryb2tlPSIjMTIzZjZkIiBzdHJva2Utd2lkdGg9IjEiIGZpbGw9Im5vbmUiLz48L2c+PGcgZmlsdGVyPSJ1cmwoI3BlbmNpbFRleHR1cmVGaWx0ZXIpIj48cGF0aCBkPSJNMjU1LjA3MyA4Ny43MTMgTDI1Ny4zMDQgODYuMDc2IEwyNTcuMzg1IDg4LjI1NiBMMjU2LjMwNyA5NS40MTUgTDI1MS45MDYgOTIuOTgyIEwyNTIuMTQ1IDkyLjY1NCBMMjUxLjQ5OSA5MyBMMjU0LjAxNSA4Ny40MzEgTDI1Ny40ODQgODkuNDgzIE0yNTIuMDc3IDgyLjUzNiBMMjQ2LjE5OCA5NC43ODkgTDI0NC40OTQgOTUuMzU1IEwyNDMuNTM3IDkwLjQyMiBMMjQyLjQxNSA4Ni4yMTEgTDI0NS43OTMgOTAuNTQxIEwyNTAuMTg5IDg1Ljc5OCBMMjUyLjE0NCA4NC43MTIiIHN0cm9rZT0ibm9uZSIgc3Ryb2tlLXdpZHRoPSIwIiBmaWxsPSIjZmZmZmZmIi8+PHBhdGggZD0iTTI1NS41MTQgODcuNjY3IEMyNTUuOTc3IDg2LjcxNywgMjU3LjE4OSA4NS4wNjIsIDI1Ny4zMDcgODQuNTUzIE0yNTcuMzA3IDg0LjU1MyBDMjU4LjY4NSA4NC4yMzMsIDI1OS40MTcgODguNTk5LCAyNTguMzk2IDg4LjY4NyBNMjU4LjM5NiA4OC42ODcgQzI1Ni43NjIgOTEuNzM0LCAyNTUuOTg0IDkwLjk1NiwgMjU2LjUwMSA5NC4wMDEgTTI1Ni41MDEgOTQuMDAxIEMyNTQuODY3IDk0LjA4OSwgMjUzLjMzNyA5My43NjgsIDI1MS44NjkgOTQuMDAxIE0yNTEuODY5IDk0LjAwMSBDMjUyLjM4MiA5Mi45NjcsIDI1My4wNzEgOTEuODg1LCAyNTMuMjk2IDkxLjUyMiBNMjUzLjI5NiA5MS41MjIgQzI1Mi44MzYgOTEuNTE5LCAyNTIuNDQ0IDkxLjQyNiwgMjUxLjQwOSA5MS41MjIgTTI1MS40MDkgOTEuNTIyIEMyNTEuNzg4IDkwLjg2MywgMjUyLjM4IDg5Ljc0MywgMjUzLjYzIDg3LjY2NCBNMjUzLjYzIDg3LjY2NCBDMjU0LjIxMSA4Ny43OTIsIDI1NC43NTMgODcuNjQ4LCAyNTUuNTE0IDg3LjY2NyBNMjUzLjg5MSA4My45OTkgQzI1Mi44NTEgODguNDM0LCAyNTAuMDQgOTEuMjM3LCAyNDguMTM0IDkzLjk5NSBNMjQ4LjEzNCA5My45OTUgQzI0OC4xMzUgOTMuOTk3LCAyNDguMTM2IDk0LCAyNDguMTM3IDk0LjAwMSBNMjQ4LjEzNyA5NC4wMDEgQzI0Ni40OTUgOTQuMTY4LCAyNDQuNjYgOTMuNjY2LCAyNDMuNDk5IDk0LjAwMSBNMjQzLjQ5OSA5NC4wMDEgQzI0MC45MjIgOTQuNCwgMjQxLjA5MyA4OC43OTgsIDI0MS42MDQgODguNjg3IE0yNDEuNjA0IDg4LjY4NyBDMjQyLjkyNSA4Ni4yMzIsIDI0My44NDcgODUuNzM1LCAyNDIuNjk2IDg0LjU0NyBNMjQyLjY5NiA4NC41NDcgQzI0Mi45NDUgODUuNjE1LCAyNDQuNTIyIDg2Ljc4MSwgMjQ1LjY5OSA4OS43NjggTTI0NS42OTkgODkuNzY4IEMyNDUuOTkgODguNTkzLCAyNDcuNjQ2IDg2LjEwMywgMjQ5LjAxOSA4My45OTYgTTI0OS4wMTkgODMuOTk2IEMyNTAuMzY5IDg0LjExNCwgMjUxLjgzMiA4NC4yOSwgMjUzLjg5MSA4My45OTYgTTI1My44OTEgODMuOTk2IEMyNTMuODkxIDgzLjk5NywgMjUzLjg5IDgzLjk5OCwgMjUzLjg5MSA4My45OTkiIHN0cm9rZT0iI2ZmZmZmZiIgc3Ryb2tlLXdpZHRoPSIxIiBmaWxsPSJub25lIi8+PC9nPjxnIGZpbHRlcj0idXJsKCNwZW5jaWxUZXh0dXJlRmlsdGVyKSI+PHBhdGggZD0iTTMxMCA4OSBDMzEwLjM2NiA5OC41MSwgMzA2LjE5IDEwNi44NjIsIDI5NSAxMDQgQzI4My43MTMgMTAyLjEwNywgMjgwLjk4NiA5Ni41NTUsIDI4MCA4OSBDMjc2LjQ4NSA4MC4wMzMsIDI4OS42IDc2LjkxOCwgMjk1IDc0IEMzMDEuOTA4IDcyLjQ4MSwgMzEzLjU1NyA4NC4yOTcsIDMxMCA4OSBDMzEwIDg5LCAzMTAgODksIDMxMCA4OSIgc3Ryb2tlPSJub25lIiBzdHJva2Utd2lkdGg9IjAiIGZpbGw9IiNkNTBjMmQiLz48cGF0aCBkPSJNMzEwIDg5IEMzMTAuMDggOTguNDAzLCAzMDMuMzA2IDEwNS41NDcsIDI5NSAxMDQgTTI5NSAxMDQgQzI4Ni45OCAxMDIuNTc2LCAyODAuMTkyIDk1LjMzNCwgMjgwIDg5IE0yODAgODkgQzI4MS45NDEgODEuMjIzLCAyODQuNzM4IDc0LjMzNywgMjk1IDc0IE0yOTUgNzQgQzMwMy43MTUgNzMuNDA2LCAzMTEuMzUxIDgxLjg1MywgMzEwIDg5IE0zMTAgODkgQzMxMCA4OSwgMzEwIDg5LCAzMTAgODkiIHN0cm9rZT0iI2Q1MGMyZCIgc3Ryb2tlLXdpZHRoPSIxIiBmaWxsPSJub25lIi8+PC9nPjxnIGZpbHRlcj0idXJsKCNwZW5jaWxUZXh0dXJlRmlsdGVyKSI+PHBhdGggZD0iTTMwMy42NjMgOTEuMDc2IEwzMDYuNDE4IDg5LjAzNiBMMzA0LjEyNiA4Ny42MzIgTDMwMy40ODIgOTAuMTc2IEwzMDUuOTcxIDkxLjg2NCBMMzAyLjE5MyA4OC45MzQgTTMwMi40MDQgODcuMzE1IEwzMDIuNTg5IDg4LjYwNiBMMzA0Ljk1OSA4OS4xOTQiIHN0cm9rZT0ibm9uZSIgc3Ryb2tlLXdpZHRoPSIwIiBmaWxsPSIjZmZmZmZmIi8+PHBhdGggZD0iTTMwNC4wODggODkuMzI4IEMzMDUuNjQ4IDkxLjI0NSwgMzA0Ljg2MiA5MC40ODQsIDMwNC41ODMgODkuMTExIE0zMDQuNTgzIDg5LjExMSBDMzAzLjU5MSA4OC4zMDUsIDMwMy45OTkgODguODk2LCAzMDQuNzY4IDg4LjU5IE0zMDQuNzY4IDg4LjU5IEMzMDIuOTYxIDg5LjYxLCAzMDUuNDg1IDg4LjI0NywgMzA0LjY0NSA4OC4xNDcgTTMwNC42NDUgODguMTQ3IEMzMDIuNTkyIDg5LjMxMywgMzAzLjI5MSA4OS41OTYsIDMwNC4wNjcgODcuNzk5IE0zMDQuMDY3IDg3Ljc5OSBDMzA0LjAzMiA4Ny43OTQsIDMwMy45OTkgODcuNzk4LCAzMDMuOTQ3IDg3Ljc5OSBNMzAzLjk0NyA4Ny43OTkgQzMwMy44MyA4Ny44MDMsIDMwMy43MDggODcuODA3LCAzMDMuNjY5IDg3Ljc5IE0zMDMuNjY5IDg3Ljc5IEMzMDMuMjkyIDg3LjgxNiwgMzAyLjY0NCA4Ny44NzksIDMwMi40MDkgODcuNzkgTTMwMi40MDkgODcuNzkgQzMwMS4zNzIgODcuMjksIDMwMS41NTIgODkuNzE5LCAzMDIuMzAxIDg3Ljg5OCBNMzAyLjMwMSA4Ny44OTggQzMwMi4yOTggODguNzc0LCAzMDIuNTA0IDg5LjM1MywgMzAyLjMwMSA5MC4xMDQgTTMwMi4zMDEgOTAuMTA0IEMzMDIuMDYgOTAuODMxLCAzMDIuNTI3IDkyLjA2MiwgMzAyLjQwOSA5MC4yMTMgTTMwMi40MDkgOTAuMjEzIEMzMDIuNTI4IDkwLjE4NSwgMzAyLjU2OCA5MC4xOTEsIDMwMi43MzcgOTAuMjEzIE0zMDIuNzM3IDkwLjIxMyBDMzA0LjI2NSA5MS4wOTYsIDMwNC43ODYgODguNzU2LCAzMDIuODQ2IDkwLjEwNCBNMzAyLjg0NiA5MC4xMDQgQzMwMi45MiA4OS45MTksIDMwMi44OSA4OS42MjYsIDMwMi44NDYgODkuMzc1IE0zMDIuODQ2IDg5LjM3NSBDMzAzLjAwNiA4OS4zNzEsIDMwMy4xMTggODkuNDA5LCAzMDMuMjQ3IDg5LjM3NSBNMzAzLjI0NyA4OS4zNzUgQzMwMS45OTMgOTEuMzYzLCAzMDUuMTE3IDkxLjA5MiwgMzAzLjQ4NCA4OS40NzUgTTMwMy40ODQgODkuNDc1IEMzMDMuNjY5IDg5LjY2LCAzMDMuOTcyIDg5Ljg5NiwgMzA0LjEyIDkwLjExMyBNMzA0LjEyIDkwLjExMyBDMzA1LjI0OSA5MS4yNiwgMzA2LjE4NSA5MS4zNDcsIDMwNC4zMzcgOTAuMjEzIE0zMDQuMzM3IDkwLjIxMyBDMzA0LjQ4NiA5MC4xOTUsIDMwNC42MyA5MC4xNzEsIDMwNC44MjMgOTAuMjEzIE0zMDQuODIzIDkwLjIxMyBDMzA1LjEgODkuNTEzLCAzMDUuMjE2IDg5LjYwOCwgMzA0Ljg2NCA5MC4xMTMgTTMwNC44NjQgOTAuMTEzIEMzMDQuNzgzIDg5LjkwNCwgMzA0LjUwMiA4OS43NjcsIDMwNC4wODggODkuMzI4IE0zMDQuMDA2IDg4Ljg1NiBDMzAzLjcyNCA4OC45LCAzMDMuMzQ5IDg4Ljk1NSwgMzAyLjg0NiA4OC44NTYgTTMwMi44NDYgODguODU2IEMzMDIuODU5IDg4LjY3NCwgMzAyLjggODguNTY0LCAzMDIuODQ2IDg4LjMgTTMwMi44NDYgODguMyBDMzAzLjA1NyA4OC4yNjIsIDMwMy40NiA4OC40MjksIDMwNC4wMDYgODguMyBNMzA0LjAwNiA4OC4zIEMzMDUuMDkzIDg5Ljc5OSwgMzA1LjM4MyA4OS4wNTcsIDMwNC4yMTEgODguNTM0IE0zMDQuMjExIDg4LjUzNCBDMzA0LjIxNCA4OC41NjYsIDMwNC4yMDMgODguNjA0LCAzMDQuMjExIDg4LjYxOSBNMzA0LjIxMSA4OC42MTkgQzMwMi4zMjIgODguNTE1LCAzMDQuNjAxIDkwLjcyMywgMzA0LjAwNiA4OC44NTYgTTMwNC4wMDYgODguODU2IEMzMDQuMDA2IDg4Ljg1NiwgMzA0LjAwNiA4OC44NTYsIDMwNC4wMDYgODguODU2IiBzdHJva2U9IiNmZmZmZmYiIHN0cm9rZS13aWR0aD0iMSIgZmlsbD0ibm9uZSIvPjwvZz48ZyBmaWx0ZXI9InVybCgjcGVuY2lsVGV4dHVyZUZpbHRlcikiPjxwYXRoIGQ9Ik0zMDEuNzkxIDg5LjY5NyBDMzAxLjI5MyA4OS41NjksIDMwMC40MDUgODkuNjQxLCAyOTkuOTg5IDg5LjY5NyBDMjk5Ljk1MyA4OS40NTksIDI5OS45MDMgODkuMzE1LCAyOTkuOTg5IDg5LjI0MyBDMzAwLjQxNiA4OS4xOTcsIDMwMS4xNCA4OS4yMTUsIDMwMS40MjggODkuMjQzIEMzMDAuNjQyIDg2LjA2MSwgMzAxLjUxNSA5MC4zNjQsIDMwMS41MzYgODkuMTM1IEMzMDEuNTggODguOTk1LCAzMDEuNDk5IDg4Ljk3NywgMzAxLjUzNiA4OC44NzEgQzI5OC41MjMgODYuMTk3LCAzMDIuOTE1IDg5LjEzLCAzMDEuNDI4IDg4Ljc2MyBDMzAwLjg4MSA4OC42OTcsIDMwMC43MTQgODguNzc4LCAyOTkuOTg5IDg4Ljc2MyBDMjk5LjkxNyA4OC42NiwgMjk5Ljk1IDg4LjUwOCwgMjk5Ljk4OSA4OC4zMDkgQzMwMC40MjIgODguNDExLCAzMDAuOTkyIDg3LjkzNiwgMzAxLjc5NCA4OC4zMDkgQzMwMi4zNzIgOTEuMDEyLCAzMDIuOTgxIDg1LjA2NCwgMzAxLjkwMiA4OC4yIEMzMDEuODk2IDg4LjA1MSwgMzAxLjkxIDg4LjA1LCAzMDEuOTAyIDg3Ljg5OCBDMjk4LjM0MyA4Ni43ODcsIDI5OC43OTQgOTEuMzMxLCAzMDEuNzk0IDg3Ljc5IEMzMDAuOTg3IDg3Ljc4MSwgMzAwLjM5MSA4Ny43MDQsIDI5OS41NDQgODcuNzkgQzMwMS4xNDcgODkuMTcyLCAzMDAuMDk2IDg0LjUzOCwgMjk5LjQzNiA4Ny44OTggQzI5OS41MTYgODguNjc1LCAyOTkuODIzIDg5LjY2NCwgMjk5LjQzNiA5MC4xMDcgQzI5Ni4wMTUgOTEuNjgxLCAzMDMuMDIyIDg5LjIwOSwgMjk5LjU0NCA5MC4yMTYgQzI5OS44NDEgOTAuMTg2LCAzMDAuNTQyIDkwLjU0MywgMzAxLjc5NCA5MC4yMTYgQzMwNS4xMDcgOTEuMDE4LCAzMDQuNTE5IDg3Ljk0OCwgMzAxLjkwMiA5MC4xMDcgQzMwMS45NjQgOTAuMDQ1LCAzMDEuOTA1IDg5Ljg3MSwgMzAxLjkwMiA4OS44MDkgQzMwNS4yMzMgOTAuMTU1LCAzMDMuODA2IDg3LjgwOSwgMzAxLjc5MSA4OS42OTcgQzMwMS43OTEgODkuNjk3LCAzMDEuNzkxIDg5LjY5NywgMzAxLjc5MSA4OS42OTciIHN0cm9rZT0ibm9uZSIgc3Ryb2tlLXdpZHRoPSIwIiBmaWxsPSIjZmZmZmZmIi8+PHBhdGggZD0iTTMwMS43OTEgODkuNjk3IEMzMDEuMDQ5IDg5LjcwMiwgMzAwLjQzOCA4OS44MDMsIDI5OS45ODkgODkuNjk3IE0yOTkuOTg5IDg5LjY5NyBDMjk5Ljk0IDg5LjU0NywgMjk5Ljk0NSA4OS4zNDEsIDI5OS45ODkgODkuMjQzIE0yOTkuOTg5IDg5LjI0MyBDMzAwLjI3MSA4OS4yMzEsIDMwMC43MTYgODkuMjEsIDMwMS40MjggODkuMjQzIE0zMDEuNDI4IDg5LjI0MyBDMjk5LjY5NSA4OC4wNjEsIDI5OS45MjkgOTAuMjM2LCAzMDEuNTM2IDg5LjEzNSBNMzAxLjUzNiA4OS4xMzUgQzMwMS41MyA4OS4wNTUsIDMwMS41MTQgODguOTM3LCAzMDEuNTM2IDg4Ljg3MSBNMzAxLjUzNiA4OC44NzEgQzMwMi40MDUgODcuODYxLCAzMDAuNTM3IDg5Ljk5OSwgMzAxLjQyOCA4OC43NjMgTTMwMS40MjggODguNzYzIEMzMDEuMDExIDg4LjY4NSwgMzAwLjI4NiA4OC43MDcsIDI5OS45ODkgODguNzYzIE0yOTkuOTg5IDg4Ljc2MyBDMzAwLjAwOSA4OC42MDMsIDI5OS45NzggODguNDUsIDI5OS45ODkgODguMzA5IE0yOTkuOTg5IDg4LjMwOSBDMzAwLjQ2MyA4OC4xOCwgMzAxLjI3NiA4OC4xNDcsIDMwMS43OTQgODguMzA5IE0zMDEuNzk0IDg4LjMwOSBDMzAxLjAyNiA4Ni43NzIsIDMwMi40ODQgODguMjI4LCAzMDEuOTAyIDg4LjIgTTMwMS45MDIgODguMiBDMzAxLjkxMSA4OC4xMzEsIDMwMS45MzIgODguMDE5LCAzMDEuOTAyIDg3Ljg5OCBNMzAxLjkwMiA4Ny44OTggQzMwMC41NjggODguNTkxLCAzMDAuMTEzIDg5LjUxNCwgMzAxLjc5NCA4Ny43OSBNMzAxLjc5NCA4Ny43OSBDMzAwLjc1NSA4Ny42NzMsIDMwMC4yNzggODcuODA4LCAyOTkuNTQ0IDg3Ljc5IE0yOTkuNTQ0IDg3Ljc5IEMzMDEuMDIyIDg5LjE5OSwgMzAwLjUxNSA4OC44NTcsIDI5OS40MzYgODcuODk4IE0yOTkuNDM2IDg3Ljg5OCBDMjk5LjQyNyA4OC41MjgsIDI5OS41MjkgODkuNzc1LCAyOTkuNDM2IDkwLjEwNyBNMjk5LjQzNiA5MC4xMDcgQzI5OS4yNzYgOTAuNjkxLCAyOTcuOTY5IDg4LjczNCwgMjk5LjU0NCA5MC4yMTYgTTI5OS41NDQgOTAuMjE2IEMzMDAuMjgzIDkwLjIzOSwgMzAwLjk3NyA5MC4wNTMsIDMwMS43OTQgOTAuMjE2IE0zMDEuNzk0IDkwLjIxNiBDMzAyLjUyMyA5MS41MTIsIDMwMy4zNzcgODkuNDU3LCAzMDEuOTAyIDkwLjEwNyBNMzAxLjkwMiA5MC4xMDcgQzMwMS45MDEgOTAuMDI3LCAzMDEuOTE0IDg5Ljg5MSwgMzAxLjkwMiA4OS44MDkgTTMwMS45MDIgODkuODA5IEMzMDIuMDE5IDkwLjc5NiwgMzAzLjA2NSA5MC44NzUsIDMwMS43OTEgODkuNjk3IE0zMDEuNzkxIDg5LjY5NyBDMzAxLjc5MSA4OS42OTcsIDMwMS43OTEgODkuNjk3LCAzMDEuNzkxIDg5LjY5NyIgc3Ryb2tlPSIjZmZmZmZmIiBzdHJva2Utd2lkdGg9IjEiIGZpbGw9Im5vbmUiLz48L2c+PGcgZmlsdGVyPSJ1cmwoI3BlbmNpbFRleHR1cmVGaWx0ZXIpIj48cGF0aCBkPSJNMjk5LjAzNyA4OC41ODQgQzI5Ny4yNTcgODUuMzA5LCAyOTUuNjk0IDkwLjcyNSwgMjk4LjkxNCA4OC4xNDcgQzI5Ny4yMTEgODcuNjIsIDI5Ni4xNzQgODYuOTkzLCAyOTguMzI4IDg3Ljc4NyBDMjk4LjAzNSA4Ny42MTMsIDI5Ny40MzggODcuNTMyLCAyOTYuNjc2IDg3Ljc4NyBDMjk1LjEwOSA4Ny41NTcsIDI5Ni4xMiA4Ni45ODYsIDI5Ni41NjcgODcuODk2IEMyOTYuOTQzIDg4LjIyNSwgMjk2LjUxIDg4LjgxNSwgMjk2LjU2NyA5MC4xMDIgQzI5OC40MzkgODkuOTQ4LCAyOTUuMjMgOTAuMTUzLCAyOTYuNjc2IDkwLjIxIEMyOTYuNzMxIDkwLjI2NSwgMjk2Ljg4MiA5MC4xNzEsIDI5Ny4wMyA5MC4yMSBDMjk3LjQyNiA5My4zNzksIDI5Ny42NTggODkuNTI5LCAyOTcuMTM5IDkwLjEwMiBDMjk3LjE0MiA4OS4zNDcsIDI5Ny4wMzYgODguOTk0LCAyOTcuMTM5IDg4LjMwMyBDMjk3LjI2MyA4OC4zNzMsIDI5Ny43MTIgODguMjc5LCAyOTguMDk3IDg4LjMwMyBDMjk2Ljc3NyA4NS4yNjcsIDI5OC43MjggODguNTI2LCAyOTguNDk4IDg4LjY0MyBDMjk4LjU0OCA4OC44MjksIDI5OC4yODggODkuMzk3LCAyOTguNDk4IDkwLjEwNCBDMzAxLjY3MiA5MS42NDEsIDI5Ny4xODkgODYuNjUxLCAyOTguNjA2IDkwLjIxMyBDMjk4Ljc4NyA5MC4yMDMsIDI5OC44NDYgOTAuMTU5LCAyOTguOTI5IDkwLjIxMyBDMjk3LjY0MSA5MS4xMzMsIDI5NS41OTYgODkuOTYxLCAyOTkuMDM3IDkwLjEwNCBDMjk4LjgzNyA5MC4wMSwgMjk5LjI4NiA4OS42NTksIDI5OS4wMzcgODguNTg0IiBzdHJva2U9Im5vbmUiIHN0cm9rZS13aWR0aD0iMCIgZmlsbD0iI2ZmZmZmZiIvPjxwYXRoIGQ9Ik0yOTkuMDM3IDg4LjU4NCBDMjk3LjcyNiA4OC4wMzQsIDI5Ny44MzcgODkuNzIxLCAyOTguOTE0IDg4LjE0NyBNMjk4LjkxNCA4OC4xNDcgQzI5OS41ODcgODkuNjIzLCAyOTkuMTg3IDg5LjUyLCAyOTguMzI4IDg3Ljc4NyBNMjk4LjMyOCA4Ny43ODcgQzI5Ny45ODIgODcuNjg3LCAyOTcuNzY5IDg3LjgwNCwgMjk2LjY3NiA4Ny43ODcgTTI5Ni42NzYgODcuNzg3IEMyOTQuOTU4IDg3LjA0OSwgMjk1LjM1MiA4OS42NDksIDI5Ni41NjcgODcuODk2IE0yOTYuNTY3IDg3Ljg5NiBDMjk2LjQxIDg4LjYxMSwgMjk2LjYwOCA4OS40MDksIDI5Ni41NjcgOTAuMTAyIE0yOTYuNTY3IDkwLjEwMiBDMjk3Ljc0OSA5MS45MzUsIDI5OC40MTkgODkuMjcsIDI5Ni42NzYgOTAuMjEgTTI5Ni42NzYgOTAuMjEgQzI5Ni43MzUgOTAuMjQ2LCAyOTYuODMxIDkwLjE4NCwgMjk3LjAzIDkwLjIxIE0yOTcuMDMgOTAuMjEgQzI5OC41NTQgOTEuMjYxLCAyOTguMDI4IDkxLjI3NywgMjk3LjEzOSA5MC4xMDIgTTI5Ny4xMzkgOTAuMTAyIEMyOTcuMTI0IDg5LjM5MywgMjk3LjAwNyA4OC43NjgsIDI5Ny4xMzkgODguMzAzIE0yOTcuMTM5IDg4LjMwMyBDMjk3LjQxNSA4OC4zNjIsIDI5Ny40ODIgODguMzI1LCAyOTguMDk3IDg4LjMwMyBNMjk4LjA5NyA4OC4zMDMgQzI5OS4yNTkgODcuMTcxLCAyOTYuNjQ5IDg4LjE1LCAyOTguNDk4IDg4LjY0MyBNMjk4LjQ5OCA4OC42NDMgQzI5OC42MzUgODguODg4LCAyOTguNDA0IDg5LjM2OCwgMjk4LjQ5OCA5MC4xMDQgTTI5OC40OTggOTAuMTA0IEMyOTguOTc0IDg4LjYxLCAyOTYuNzcxIDg4LjUwOCwgMjk4LjYwNiA5MC4yMTMgTTI5OC42MDYgOTAuMjEzIEMyOTguNzIzIDkwLjIwOCwgMjk4LjgwOSA5MC4xOTIsIDI5OC45MjkgOTAuMjEzIE0yOTguOTI5IDkwLjIxMyBDMjk4Ljg3MyA4OS4xNTgsIDI5OC40OTEgOTEuMzEsIDI5OS4wMzcgOTAuMTA0IE0yOTkuMDM3IDkwLjEwNCBDMjk5LjAwNSA4OS43NDYsIDI5OC45MzUgODkuMjIzLCAyOTkuMDM3IDg4LjU4NCIgc3Ryb2tlPSIjZmZmZmZmIiBzdHJva2Utd2lkdGg9IjEiIGZpbGw9Im5vbmUiLz48L2c+PGcgZmlsdGVyPSJ1cmwoI3BlbmNpbFRleHR1cmVGaWx0ZXIpIj48cGF0aCBkPSJNMjk2LjA2MyA4OS42ODMgQzI5NS44MiA4OS41NDEsIDI5NS4zMzIgODkuNDgzLCAyOTQuNTA4IDg5LjY4MyBDMjk0Ljk5MSA4OS43MTUsIDI5NS4yMjcgODkuMzY3LCAyOTYuMDY2IDg4LjMxNCBDMjk1LjIxNiA4NS40NzgsIDI5NS40ODYgODUuODYyLCAyOTYuMTc1IDg4LjExMiBDMjk2LjIwNSA4Ny45OTYsIDI5Ni4yMDEgODcuOTcsIDI5Ni4xNzUgODcuODk2IEMyOTUuOSA4Ni42ODIsIDI5Ny4zMzQgODUuNzg3LCAyOTYuMDY2IDg3Ljc4NyBDMjk1LjA1MiA4Ny41LCAyOTQuMTYgODcuNjk4LCAyOTMuODExIDg3Ljc4NyBDMjk0LjY3OSA4NS40ODgsIDI5Mi40MTMgODcuNTYxLCAyOTMuNzAyIDg3Ljg5NiBDMjkzLjc1NSA4OC4wMDYsIDI5My43MzEgODguMTQzLCAyOTMuNzAyIDg4LjE5NyBDMjk1LjAzMiA5MS41MTUsIDI5MS43MzEgODguNDQ3LCAyOTMuODExIDg4LjMwNiBDMjk0LjI1NCA4OC4xNjMsIDI5NC41MjggODguNTcxLCAyOTUuMjU1IDg4LjMwNiBDMjk0Ljk0NSA4OC4zNzgsIDI5NC43MDggODkuMzE2LCAyOTMuODA1IDg5LjY2NSBDMjkzLjYwOCA4OC44NTcsIDI5Ny4wNDIgODcuNjA4LCAyOTMuNjk2IDg5Ljg2NyBDMjkzLjY5NyA4OS45MzYsIDI5My43MzQgOTAuMDE0LCAyOTMuNjk2IDkwLjEwNCBDMjkyLjY5NyA4Ni44MTksIDI5Mi42NDkgOTMuNTAzLCAyOTMuODA1IDkwLjIxMyBDMjk0LjQ5OSA5MC4zMzUsIDI5NS4xNDQgOTAuNDMzLCAyOTYuMDU4IDkwLjIxMyBDMjk3LjIxNiA5Mi4wNjUsIDI5OC4wODEgODkuNTc0LCAyOTYuMTY2IDkwLjEwNCBDMjk2LjEzNyA4OS45NzksIDI5Ni4xNjkgODkuOTM5LCAyOTYuMTY2IDg5Ljc5MSBDMjk4LjAzMiA5Mi4wMzMsIDI5Ny44MjUgODkuNjksIDI5Ni4wNjMgODkuNjgzIEMyOTYuMDYzIDg5LjY4MywgMjk2LjA2MyA4OS42ODMsIDI5Ni4wNjMgODkuNjgzIiBzdHJva2U9Im5vbmUiIHN0cm9rZS13aWR0aD0iMCIgZmlsbD0iI2ZmZmZmZiIvPjxwYXRoIGQ9Ik0yOTYuMDYzIDg5LjY4MyBDMjk1LjQyOCA4OS42MTcsIDI5NS4wNjcgODkuNjk5LCAyOTQuNTA4IDg5LjY4MyBNMjk2LjA2MyA4OS42ODMgQzI5NS44MDcgODkuNjI4LCAyOTUuNSA4OS41OTMsIDI5NC41MDggODkuNjgzIE0yOTQuNTA4IDg5LjY4MyBDMjk0Ljg0MiA4OS40NzksIDI5NS4yNTIgODguODk1LCAyOTYuMDY2IDg4LjMxNCBNMjk0LjUwOCA4OS42ODMgQzI5NC45NjMgODkuMjkyLCAyOTUuMzY5IDg4Ljg1OSwgMjk2LjA2NiA4OC4zMTQgTTI5Ni4wNjYgODguMzE0IEMyOTcuMTAyIDg4LjMyOSwgMjk2LjY1OCA4Ni40MzIsIDI5Ni4xNzUgODguMTEyIE0yOTYuMDY2IDg4LjMxNCBDMjk0LjU5OSA4Ny4wMTEsIDI5NC4xOTkgODYuMjA5LCAyOTYuMTc1IDg4LjExMiBNMjk2LjE3NSA4OC4xMTIgQzI5Ni4xOTQgODguMDUxLCAyOTYuMTY5IDg3Ljk0NywgMjk2LjE3NSA4Ny44OTYgTTI5Ni4xNzUgODguMTEyIEMyOTYuMTY1IDg4LjA2MiwgMjk2LjE2MiA4Ny45ODYsIDI5Ni4xNzUgODcuODk2IE0yOTYuMTc1IDg3Ljg5NiBDMjk2LjM4MyA4OC45MjEsIDI5NC44MDggODYuNzE0LCAyOTYuMDY2IDg3Ljc4NyBNMjk2LjE3NSA4Ny44OTYgQzI5Ny4wNjUgODguNDQzLCAyOTUuMjQ0IDg1Ljc2MywgMjk2LjA2NiA4Ny43ODcgTTI5Ni4wNjYgODcuNzg3IEMyOTUuNTU2IDg3Ljk2NCwgMjk0LjY3IDg3LjgwMiwgMjkzLjgxMSA4Ny43ODcgTTI5Ni4wNjYgODcuNzg3IEMyOTUuMjI2IDg3LjcxNiwgMjk0LjYxIDg3Ljc2OCwgMjkzLjgxMSA4Ny43ODcgTTI5My44MTEgODcuNzg3IEMyOTUuNjA2IDg2LjUxNSwgMjkyLjQ5MyA4OC40MzQsIDI5My43MDIgODcuODk2IE0yOTMuODExIDg3Ljc4NyBDMjk0LjUwMyA4Ni40NjQsIDI5My4yMjEgODYuMTQxLCAyOTMuNzAyIDg3Ljg5NiBNMjkzLjcwMiA4Ny44OTYgQzI5My42OTIgODgsIDI5My42NzggODguMSwgMjkzLjcwMiA4OC4xOTcgTTI5My43MDIgODcuODk2IEMyOTMuNjk0IDg4LjAwNCwgMjkzLjY5NiA4OC4xMjUsIDI5My43MDIgODguMTk3IE0yOTMuNzAyIDg4LjE5NyBDMjk0LjY1MSA4Ni40NzMsIDI5Mi4yNjggODkuMzg5LCAyOTMuODExIDg4LjMwNiBNMjkzLjcwMiA4OC4xOTcgQzI5My43NDEgODkuMzcsIDI5NS43MjUgODkuNjE5LCAyOTMuODExIDg4LjMwNiBNMjkzLjgxMSA4OC4zMDYgQzI5NC4yNzEgODguMzY0LCAyOTQuNzk3IDg4LjM4OCwgMjk1LjI1NSA4OC4zMDYgTTI5My44MTEgODguMzA2IEMyOTQuMTMyIDg4LjM0NCwgMjk0LjU5NSA4OC4zMTIsIDI5NS4yNTUgODguMzA2IE0yOTUuMjU1IDg4LjMwNiBDMjk0LjgxNSA4OC41NDEsIDI5NC43NzUgODkuMDY1LCAyOTMuODA1IDg5LjY2NSBNMjk1LjI1NSA4OC4zMDYgQzI5NC42OTQgODguNzE3LCAyOTQuMTkgODkuMjM0LCAyOTMuODA1IDg5LjY2NSBNMjkzLjgwNSA4OS42NjUgQzI5NS4wNjIgOTAuNjYyLCAyOTQuNDc5IDg4LjM0NCwgMjkzLjY5NiA4OS44NjcgTTI5My44MDUgODkuNjY1IEMyOTIuOTUzIDg5LjQ0LCAyOTQuOTgxIDg5LjA2LCAyOTMuNjk2IDg5Ljg2NyBNMjkzLjY5NiA4OS44NjcgQzI5My42OTIgODkuOTM4LCAyOTMuNzA1IDkwLjA1OSwgMjkzLjY5NiA5MC4xMDQgTTI5My42OTYgODkuODY3IEMyOTMuNjkxIDg5LjkzOSwgMjkzLjY5IDkwLCAyOTMuNjk2IDkwLjEwNCBNMjkzLjY5NiA5MC4xMDQgQzI5NS4zMjcgOTEuOTg2LCAyOTIuNzc2IDg4Ljg5MSwgMjkzLjgwNSA5MC4yMTMgTTI5My42OTYgOTAuMTA0IEMyOTUuNzU5IDkyLjM1MSwgMjkyLjE4MiA5MS4xMjcsIDI5My44MDUgOTAuMjEzIE0yOTMuODA1IDkwLjIxMyBDMjk0LjY0NyA5MC4xMTcsIDI5NS4zOTggOTAuMDg3LCAyOTYuMDU4IDkwLjIxMyBNMjkzLjgwNSA5MC4yMTMgQzI5NC42MzggOTAuMjI1LCAyOTUuNDQ1IDkwLjE1NSwgMjk2LjA1OCA5MC4yMTMgTTI5Ni4wNTggOTAuMjEzIEMyOTQuODc5IDkwLjAwOSwgMjk3LjA3NiA5Mi4wMDEsIDI5Ni4xNjYgOTAuMTA0IE0yOTYuMDU4IDkwLjIxMyBDMjk2LjE0NiA4OC4zOTksIDI5OC4wNTggOTAuODAxLCAyOTYuMTY2IDkwLjEwNCBNMjk2LjE2NiA5MC4xMDQgQzI5Ni4xMzQgODkuOTYyLCAyOTYuMTMyIDg5Ljg0MSwgMjk2LjE2NiA4OS43OTEgTTI5Ni4xNjYgOTAuMTA0IEMyOTYuMTU3IDg5Ljk5MSwgMjk2LjE3MSA4OS44NTcsIDI5Ni4xNjYgODkuNzkxIE0yOTYuMTY2IDg5Ljc5MSBDMjk3LjYyMiA4OS43MTcsIDI5NS40ODQgODkuODM1LCAyOTYuMDYzIDg5LjY4MyBNMjk2LjE2NiA4OS43OTEgQzI5Ny43MTYgOTEuMDAyLCAyOTcuMjcyIDg4LjY2OCwgMjk2LjA2MyA4OS42ODMgTTI5Ni4wNjMgODkuNjgzIEMyOTYuMDYzIDg5LjY4MywgMjk2LjA2MyA4OS42ODMsIDI5Ni4wNjMgODkuNjgzIE0yOTYuMDYzIDg5LjY4MyBDMjk2LjA2MyA4OS42ODMsIDI5Ni4wNjMgODkuNjgzLCAyOTYuMDYzIDg5LjY4MyIgc3Ryb2tlPSIjZmZmZmZmIiBzdHJva2Utd2lkdGg9IjEiIGZpbGw9Im5vbmUiLz48L2c+PGcgZmlsdGVyPSJ1cmwoI3BlbmNpbFRleHR1cmVGaWx0ZXIpIj48cGF0aCBkPSJNMjkzLjE5NSA4Ny43ODcgQzI5Mi42NjQgODcuNjM3LCAyOTEuNjQ5IDg3LjUzOCwgMjkwLjk0NSA4Ny43ODcgQzI5MC4zNzIgOTAuMDAxLCAyODkuMzM1IDg1LjgyNiwgMjkwLjgzNyA4Ny44OTYgQzI5MC44MjcgODcuOTksIDI5MC44NiA4OC4wODcsIDI5MC44MzcgODguMTk3IEMyODcuODQ4IDkwLjY4MSwgMjkyLjIwNCA5MS4xNTcsIDI5MC45NDUgODguMzA2IEMyOTEuNDIxIDg4LjI1NCwgMjkxLjY5NyA4OC4xODgsIDI5MS43OTUgODguMzA2IEMyOTEuNjYyIDg5LjA5OCwgMjkxLjgyOCA4OS40MzIsIDI5MS43OTUgOTAuMTA0IEMyOTIuNjk2IDg2LjgxNywgMjkwLjU4MyA4OS45NzUsIDI5MS45MDMgOTAuMjEzIEMyOTEuOTUxIDkwLjIwMywgMjkyLjA3MiA5MC4xOTcsIDI5Mi4yNjQgOTAuMjEzIEMyOTIuODUzIDkzLjEwOCwgMjkyLjI4MiA4Ny44MDksIDI5Mi4zNzIgOTAuMTA0IEMyOTIuMDQ3IDg5LjM4NywgMjkyLjU3MiA4OS4wMTMsIDI5Mi4zNzIgODguMzA2IEMyOTIuNTg1IDg4LjI1OCwgMjkyLjg2NCA4OC4yNzksIDI5My4xOTggODguMzA2IEMyOTIuNDc3IDg5LjQzOSwgMjkxLjIyMSA4OC43NSwgMjkzLjMwNyA4OC4xOTcgQzI5My4zNTUgODguMDQ0LCAyOTMuMzM2IDg3LjkzOCwgMjkzLjMwNyA4Ny44OTggQzI5MC40NTcgODQuODk5LCAyOTMuNjE1IDg5LjMyMiwgMjkzLjE5NSA4Ny43ODcgQzI5My4xOTUgODcuNzg3LCAyOTMuMTk1IDg3Ljc4NywgMjkzLjE5NSA4Ny43ODciIHN0cm9rZT0ibm9uZSIgc3Ryb2tlLXdpZHRoPSIwIiBmaWxsPSIjZmZmZmZmIi8+PHBhdGggZD0iTTI5My4xOTUgODcuNzg3IEMyOTIuNDMxIDg3Ljc3OCwgMjkxLjM0OCA4Ny43MTYsIDI5MC45NDUgODcuNzg3IE0yOTMuMTk1IDg3Ljc4NyBDMjkyLjY1NCA4Ny44NzIsIDI5MS45NTIgODcuODk1LCAyOTAuOTQ1IDg3Ljc4NyBNMjkwLjk0NSA4Ny43ODcgQzI5Mi41NTcgODcuMDM0LCAyOTIuMTIgODYuNiwgMjkwLjgzNyA4Ny44OTYgTTI5MC45NDUgODcuNzg3IEMyOTIuMDQ5IDg3LjIwMSwgMjg4LjczMyA4OS43OTUsIDI5MC44MzcgODcuODk2IE0yOTAuODM3IDg3Ljg5NiBDMjkwLjgyMiA4OCwgMjkwLjgxMSA4OC4xMiwgMjkwLjgzNyA4OC4xOTcgTTI5MC44MzcgODcuODk2IEMyOTAuODM2IDg3Ljk5NSwgMjkwLjgzOSA4OC4xMywgMjkwLjgzNyA4OC4xOTcgTTI5MC44MzcgODguMTk3IEMyOTAuOTQzIDg3LjI1LCAyOTAuOTUxIDg4Ljk4NywgMjkwLjk0NSA4OC4zMDYgTTI5MC44MzcgODguMTk3IEMyOTEuOTcxIDg4Ljc1OSwgMjkzLjAxOCA4OS41MjgsIDI5MC45NDUgODguMzA2IE0yOTAuOTQ1IDg4LjMwNiBDMjkxLjEwNiA4OC4zNDYsIDI5MS40MDQgODguMzU0LCAyOTEuNzk1IDg4LjMwNiBNMjkwLjk0NSA4OC4zMDYgQzI5MS4xODcgODguMjcyLCAyOTEuNDExIDg4LjMzOSwgMjkxLjc5NSA4OC4zMDYgTTI5MS43OTUgODguMzA2IEMyOTEuOTY3IDg4LjgxNiwgMjkxLjk3NSA4OS41OTksIDI5MS43OTUgOTAuMTA0IE0yOTEuNzk1IDg4LjMwNiBDMjkxLjc4MyA4OC45MTgsIDI5MS44NzMgODkuNjA1LCAyOTEuNzk1IDkwLjEwNCBNMjkxLjc5NSA5MC4xMDQgQzI5My4yNDQgODguNTUyLCAyOTAuMjY1IDkwLjY2OCwgMjkxLjkwMyA5MC4yMTMgTTI5MS43OTUgOTAuMTA0IEMyOTAuOTc2IDg4LjI4MSwgMjkxLjI3NCA5MC4wNTYsIDI5MS45MDMgOTAuMjEzIE0yOTEuOTAzIDkwLjIxMyBDMjkyLjAwMSA5MC4yNDIsIDI5Mi4wNjcgOTAuMjIzLCAyOTIuMjY0IDkwLjIxMyBNMjkxLjkwMyA5MC4yMTMgQzI5MS45NzUgOTAuMjMzLCAyOTIuMDM3IDkwLjIwOSwgMjkyLjI2NCA5MC4yMTMgTTI5Mi4yNjQgOTAuMjEzIEMyOTEuMDYyIDg5Ljg3MSwgMjkxLjE3NSA5MS43OTMsIDI5Mi4zNzIgOTAuMTA0IE0yOTIuMjY0IDkwLjIxMyBDMjkzLjE1NCA4Ny45MTQsIDI5My41OTYgOTAuNzAzLCAyOTIuMzcyIDkwLjEwNCBNMjkyLjM3MiA5MC4xMDQgQzI5Mi4yNzIgODkuNjU3LCAyOTIuMzY4IDg4Ljg2OCwgMjkyLjM3MiA4OC4zMDYgTTI5Mi4zNzIgOTAuMTA0IEMyOTIuNDE3IDg5LjY2OSwgMjkyLjMyNCA4OS4wMiwgMjkyLjM3MiA4OC4zMDYgTTI5Mi4zNzIgODguMzA2IEMyOTIuNjE3IDg4LjMzNywgMjkyLjg5NCA4OC4zNjIsIDI5My4xOTggODguMzA2IE0yOTIuMzcyIDg4LjMwNiBDMjkyLjU2IDg4LjMyNywgMjkyLjc5IDg4LjI2MSwgMjkzLjE5OCA4OC4zMDYgTTI5My4xOTggODguMzA2IEMyOTQuNjggODYuOTkxLCAyOTQuOSA4Ny4wNTksIDI5My4zMDcgODguMTk3IE0yOTMuMTk4IDg4LjMwNiBDMjk1LjU3MSA4Ny4zODUsIDI5NS4xMTYgODYuNzczLCAyOTMuMzA3IDg4LjE5NyBNMjkzLjMwNyA4OC4xOTcgQzI5My4yOTIgODguMTA3LCAyOTMuMzI3IDg3Ljk3MiwgMjkzLjMwNyA4Ny44OTggTTI5My4zMDcgODguMTk3IEMyOTMuMjg3IDg4LjExNiwgMjkzLjMxMiA4OC4wNDYsIDI5My4zMDcgODcuODk4IE0yOTMuMzA3IDg3Ljg5OCBDMjk1LjEwNyA4OC43MzEsIDI5NS4xMjIgODkuMDkxLCAyOTMuMTk1IDg3Ljc4NyBNMjkzLjMwNyA4Ny44OTggQzI5My45OTQgODUuNTY1LCAyOTMuMTY1IDg3LjgxNywgMjkzLjE5NSA4Ny43ODcgTTI5My4xOTUgODcuNzg3IEMyOTMuMTk1IDg3Ljc4NywgMjkzLjE5NSA4Ny43ODcsIDI5My4xOTUgODcuNzg3IE0yOTMuMTk1IDg3Ljc4NyBDMjkzLjE5NSA4Ny43ODcsIDI5My4xOTUgODcuNzg3LCAyOTMuMTk1IDg3Ljc4NyIgc3Ryb2tlPSIjZmZmZmZmIiBzdHJva2Utd2lkdGg9IjEiIGZpbGw9Im5vbmUiLz48L2c+PGcgZmlsdGVyPSJ1cmwoI3BlbmNpbFRleHR1cmVGaWx0ZXIpIj48cGF0aCBkPSJNMjkwLjMzIDg5LjY5NyBDMjkwLjEzMiA4OS44MzksIDI4OS42MyA4OS45NzgsIDI4OC41MzEgODkuNjk3IEMyODguNTc0IDg5LjYxNSwgMjg4LjUwNyA4OS4zMDEsIDI4OC41MzEgODkuMjQzIEMyODguNzY3IDg5LjA4NiwgMjg4LjkyMiA4OS40NzgsIDI4OS45NyA4OS4yNDMgQzI5MC41NzIgOTEuNjA2LCAyODkuNzUzIDg2LjA5OSwgMjkwLjA3OCA4OS4xMzUgQzI5MC4wNzcgODkuMDQsIDI5MC4wNjYgODguOTQ0LCAyOTAuMDc4IDg4Ljg3MSBDMjkxLjI2NiA4NS4zMjQsIDI5Mi4yMiA5MC40NDQsIDI4OS45NyA4OC43NjMgQzI4OS4zMjcgODguNTgsIDI4OC43MjUgODguNiwgMjg4LjUzMSA4OC43NjMgQzI4OC40NzcgODguNjU2LCAyODguNjE1IDg4LjU0NywgMjg4LjUzMSA4OC4zMDkgQzI4OS4zMjEgODguMzI0LCAyODkuNjkzIDg4LjMwMiwgMjkwLjMzIDg4LjMwOSBDMjkzLjM1OSA5MC45MSwgMjkxLjkwOCA4Ni43ODUsIDI5MC40MzggODguMiBDMjkwLjQ0NiA4OC4xNTQsIDI5MC40MTIgODguMDk3LCAyOTAuNDM4IDg3Ljg5OCBDMjg4LjU4OCA4Ni4zMDYsIDI5Mi44MyA4Ni4wNywgMjkwLjMzIDg3Ljc5IEMyODkuNDgxIDg4LjA5NiwgMjg5LjI2NyA4Ny40NjgsIDI4OC4wODYgODcuNzkgQzI5MS40NDcgODUuODk1LCAyODguOTE0IDg4LjE0MSwgMjg3Ljk3OCA4Ny44OTggQzI4OC4wNDYgODguNjMsIDI4Ny44NyA4OS41MiwgMjg3Ljk3OCA5MC4xMDcgQzI4NS4wODQgODkuNzQ1LCAyODcuMjc0IDg5LjYyNSwgMjg4LjA4NiA5MC4yMTYgQzI4OC42NTYgOTAuNDc1LCAyODkuNTQ0IDkwLjYzMSwgMjkwLjMzIDkwLjIxNiBDMjkzLjI0NSA5MS4yMTMsIDI4Ny45ODkgODguMTYzLCAyOTAuNDM4IDkwLjEwNyBDMjkwLjQ4NCA5MC4wODgsIDI5MC40NjMgODkuOTU5LCAyOTAuNDM4IDg5LjgwOSBDMjkyLjYzOCA5My4zMDcsIDI5MC41NjcgOTIuMTExLCAyOTAuMzMgODkuNjk3IEMyOTAuMzMgODkuNjk3LCAyOTAuMzMgODkuNjk3LCAyOTAuMzMgODkuNjk3IiBzdHJva2U9Im5vbmUiIHN0cm9rZS13aWR0aD0iMCIgZmlsbD0iI2ZmZmZmZiIvPjxwYXRoIGQ9Ik0yOTAuMzMgODkuNjk3IEMyODkuNjMgODkuNTczLCAyODguOTA5IDg5LjYxNywgMjg4LjUzMSA4OS42OTcgTTI4OC41MzEgODkuNjk3IEMyODguNTAxIDg5LjUwNywgMjg4LjU1MSA4OS40MzgsIDI4OC41MzEgODkuMjQzIE0yODguNTMxIDg5LjI0MyBDMjg4Ljg3NSA4OS4zNjIsIDI4OS40MSA4OS4xMjgsIDI4OS45NyA4OS4yNDMgTTI4OS45NyA4OS4yNDMgQzI5MC41MSA4Ny43MDksIDI5MC4yOTcgODcuODk0LCAyOTAuMDc4IDg5LjEzNSBNMjkwLjA3OCA4OS4xMzUgQzI5MC4wNTYgODkuMDIzLCAyOTAuMDk0IDg4Ljk0LCAyOTAuMDc4IDg4Ljg3MSBNMjkwLjA3OCA4OC44NzEgQzI5MC45NzMgODYuNzk1LCAyOTAuNDA1IDg3LjQ5OCwgMjg5Ljk3IDg4Ljc2MyBNMjg5Ljk3IDg4Ljc2MyBDMjg5LjQ1NiA4OC44NzIsIDI4OS4wNDggODguNzQ3LCAyODguNTMxIDg4Ljc2MyBNMjg4LjUzMSA4OC43NjMgQzI4OC41MTIgODguNjI0LCAyODguNTYgODguNTUzLCAyODguNTMxIDg4LjMwOSBNMjg4LjUzMSA4OC4zMDkgQzI4OC45ODcgODguMTM0LCAyODkuODQ4IDg4LjQ1OCwgMjkwLjMzIDg4LjMwOSBNMjkwLjMzIDg4LjMwOSBDMjkwLjA0NyA4Ny4yNzYsIDI4OS4xMTIgODkuNDI4LCAyOTAuNDM4IDg4LjIgTTI5MC40MzggODguMiBDMjkwLjQ2IDg4LjA5LCAyOTAuNDQ0IDg3Ljk1MywgMjkwLjQzOCA4Ny44OTggTTI5MC40MzggODcuODk4IEMyODguNTQ3IDg4LjYwNSwgMjg5LjY1NCA4NS44NzgsIDI5MC4zMyA4Ny43OSBNMjkwLjMzIDg3Ljc5IEMyODkuODM0IDg3Ljg2LCAyODkuMzUgODcuOTQzLCAyODguMDg2IDg3Ljc5IE0yODguMDg2IDg3Ljc5IEMyODYuNDM3IDg4LjgwNiwgMjg2Ljc2NiA4OS40NywgMjg3Ljk3OCA4Ny44OTggTTI4Ny45NzggODcuODk4IEMyODcuODE0IDg4LjUzOSwgMjg4LjA5IDg5LjQ0LCAyODcuOTc4IDkwLjEwNyBNMjg3Ljk3OCA5MC4xMDcgQzI4OS43NzkgODkuOTczLCAyODYuMTU0IDg5LjY2MiwgMjg4LjA4NiA5MC4yMTYgTTI4OC4wODYgOTAuMjE2IEMyODguNzEzIDkwLjA4NywgMjg4Ljk2NCA5MC4yOCwgMjkwLjMzIDkwLjIxNiBNMjkwLjMzIDkwLjIxNiBDMjg4Ljc2NiA4OS4xOTUsIDI4OS41OTcgODkuODEyLCAyOTAuNDM4IDkwLjEwNyBNMjkwLjQzOCA5MC4xMDcgQzI5MC40MjkgODkuOTc2LCAyOTAuNDYyIDg5Ljg2OCwgMjkwLjQzOCA4OS44MDkgTTI5MC40MzggODkuODA5IEMyOTEuMDI5IDkxLjE5MywgMjg4LjgxIDg3LjcxNywgMjkwLjMzIDg5LjY5NyBNMjkwLjMzIDg5LjY5NyBDMjkwLjMzIDg5LjY5NywgMjkwLjMzIDg5LjY5NywgMjkwLjMzIDg5LjY5NyIgc3Ryb2tlPSIjZmZmZmZmIiBzdHJva2Utd2lkdGg9IjEiIGZpbGw9Im5vbmUiLz48L2c+PGcgZmlsdGVyPSJ1cmwoI3BlbmNpbFRleHR1cmVGaWx0ZXIpIj48cGF0aCBkPSJNMjg3LjQ2NSA4Ny43ODcgQzI4Ny40NDcgODcuODEyLCAyODcuMjk2IDg3Ljc3MiwgMjg3LjEyNSA4Ny43ODcgQzI4OS45MzkgODUuNiwgMjkwLjYxMSA4Ni4zODksIDI4Ny4wMTcgODcuODk2IEMyODYuOTg1IDg4LjAwMywgMjg3LjEzNiA4OC4yLCAyODcuMDE3IDg4Ljc1NCBDMjg2LjUwOSA4OC42MTYsIDI4Ni41ODEgODguODg1LCAyODUuNjY2IDg4Ljc1NCBDMjg1Ljc1IDg4LjU3NCwgMjg1LjczNyA4OC40NzcsIDI4NS42NjYgODcuODk2IEMyODcuNzE5IDg2LjYzLCAyODUuMTQ3IDg4LjQxMSwgMjg1LjU1OCA4Ny43ODcgQzI4NS41MDcgODcuNzcxLCAyODUuNDMgODcuNzcxLCAyODUuMjE1IDg3Ljc4NyBDMjg0LjczNyA4NS4zMTgsIDI4Ny42MTYgOTEuMDIxLCAyODUuMTA2IDg3Ljg5NiBDMjg1LjI2MiA4OC41MDIsIDI4NS4xMTYgODkuMDU1LCAyODUuMTA2IDkwLjEwNCBDMjg2LjkwNiA4OC4yMTUsIDI4NS43MjkgOTIuOTM5LCAyODUuMjE1IDkwLjIxMyBDMjg1LjM1NSA5MC4yNDksIDI4NS40NTYgOTAuMjI2LCAyODUuNTU4IDkwLjIxMyBDMjgzLjQ5MSA5MS45NjgsIDI4Mi40MjEgOTMuNjYzLCAyODUuNjY2IDkwLjEwNCBDMjg1LjQ5NiA4OS44NCwgMjg1LjUwNCA4OS42MTcsIDI4NS42NjYgODkuMjMxIEMyODUuOTE3IDg5LjI3NCwgMjg2LjU3OCA4OS4yOTIsIDI4Ny4wMiA4OS4yMzEgQzI4Ni44OTUgODkuNDY1LCAyODcuMDY5IDg5Ljc3OCwgMjg3LjAyIDkwLjEwNCBDMjg2LjM2NyA4Ni41OTgsIDI4OS45MjcgOTAuMjI4LCAyODcuMTI4IDkwLjIxMyBDMjg3LjE5NSA5MC4xNjYsIDI4Ny4yNDYgOTAuMjMzLCAyODcuNDY4IDkwLjIxMyBDMjg5Ljg3NiA5MC4xNTYsIDI4NC41NzcgODguMzU4LCAyODcuNTc2IDkwLjEwNCBDMjg3LjI4IDg5LjQyNSwgMjg3LjY0NCA4OC42OTYsIDI4Ny41NzYgODcuODk2IEMyOTAuOTc3IDg5Ljc4MywgMjg2LjU2NSA5MC42MjUsIDI4Ny40NjUgODcuNzg3IEMyODcuNDY1IDg3Ljc4NywgMjg3LjQ2NSA4Ny43ODcsIDI4Ny40NjUgODcuNzg3IiBzdHJva2U9Im5vbmUiIHN0cm9rZS13aWR0aD0iMCIgZmlsbD0iI2ZmZmZmZiIvPjxwYXRoIGQ9Ik0yODcuNDY1IDg3Ljc4NyBDMjg3LjM2OCA4Ny44MDcsIDI4Ny4zMDggODcuNzcyLCAyODcuMTI1IDg3Ljc4NyBNMjg3LjEyNSA4Ny43ODcgQzI4NS41MDIgODYuMzQxLCAyODUuNDE0IDg2Ljc0OSwgMjg3LjAxNyA4Ny44OTYgTTI4Ny4wMTcgODcuODk2IEMyODcuMDI2IDg4LjIwMywgMjg2Ljk3NSA4OC4zODYsIDI4Ny4wMTcgODguNzU0IE0yODcuMDE3IDg4Ljc1NCBDMjg2LjY3MiA4OC42MiwgMjg2LjI2OSA4OC43NjksIDI4NS42NjYgODguNzU0IE0yODUuNjY2IDg4Ljc1NCBDMjg1LjYwOSA4OC4zNzcsIDI4NS42NjggODguMTM4LCAyODUuNjY2IDg3Ljg5NiBNMjg1LjY2NiA4Ny44OTYgQzI4NC43MzMgODYuNzQ4LCAyODQuMDg5IDg4LjA3NSwgMjg1LjU1OCA4Ny43ODcgTTI4NS41NTggODcuNzg3IEMyODUuNDUgODcuNzksIDI4NS4zMzggODcuNzcsIDI4NS4yMTUgODcuNzg3IE0yODUuMjE1IDg3Ljc4NyBDMjg2LjA3NCA4OC45OTksIDI4NS45OTggODguMzExLCAyODUuMTA2IDg3Ljg5NiBNMjg1LjEwNiA4Ny44OTYgQzI4NS4xNDkgODguNDM4LCAyODUuMjM0IDg4LjgxOCwgMjg1LjEwNiA5MC4xMDQgTTI4NS4xMDYgOTAuMTA0IEMyODQuNDk1IDg5Ljg0OCwgMjg2LjQ5IDkxLjA0OCwgMjg1LjIxNSA5MC4yMTMgTTI4NS4yMTUgOTAuMjEzIEMyODUuMzA4IDkwLjIxMywgMjg1LjQyNiA5MC4xODQsIDI4NS41NTggOTAuMjEzIE0yODUuNTU4IDkwLjIxMyBDMjg0Ljg4MiA5MS40NzMsIDI4NC43NyA4OS4yMDYsIDI4NS42NjYgOTAuMTA0IE0yODUuNjY2IDkwLjEwNCBDMjg1LjYyNiA4OS45ODgsIDI4NS42ODUgODkuNzY3LCAyODUuNjY2IDg5LjIzMSBNMjg1LjY2NiA4OS4yMzEgQzI4NS45MDIgODkuMTMsIDI4Ni4wNzUgODkuMTQ0LCAyODcuMDIgODkuMjMxIE0yODcuMDIgODkuMjMxIEMyODcuMDE0IDg5LjQ1OCwgMjg3LjExIDg5Ljc0MSwgMjg3LjAyIDkwLjEwNCBNMjg3LjAyIDkwLjEwNCBDMjg1LjIgOTAuOTkzLCAyODguNTY3IDkwLjU2NiwgMjg3LjEyOCA5MC4yMTMgTTI4Ny4xMjggOTAuMjEzIEMyODcuMjcgOTAuMTgsIDI4Ny4zOSA5MC4yMjcsIDI4Ny40NjggOTAuMjEzIE0yODcuNDY4IDkwLjIxMyBDMjg2LjM0NyA4OS4yMDksIDI4Ni42ODIgOTAuMDMsIDI4Ny41NzYgOTAuMTA0IE0yODcuNTc2IDkwLjEwNCBDMjg3Ljc3NCA4OS41MSwgMjg3LjQgODguNjY2LCAyODcuNTc2IDg3Ljg5NiBNMjg3LjU3NiA4Ny44OTYgQzI4Ny41NTkgODcuOTIzLCAyODUuODQ0IDg4LjA2MywgMjg3LjQ2NSA4Ny43ODcgTTI4Ny40NjUgODcuNzg3IEMyODcuNDY1IDg3Ljc4NywgMjg3LjQ2NSA4Ny43ODcsIDI4Ny40NjUgODcuNzg3IiBzdHJva2U9IiNmZmZmZmYiIHN0cm9rZS13aWR0aD0iMSIgZmlsbD0ibm9uZSIvPjwvZz48L3N2Zz4=;" vertex="1" parent="hs8F6ffxhh7QRecEe4GT-38">
          <mxGeometry x="130" y="136" width="311" height="104" as="geometry" />
        </mxCell>
        <mxCell id="1" style="" parent="0" />
        <mxCell id="g3nPJNQ9NZN2WeUWGuOm-2" value="" style="rounded=0;whiteSpace=wrap;html=1;glass=0;shadow=0;sketch=1;curveFitting=1;jiggle=2;sketchStyle=rough;disableMultiStroke=0;fillWeight=-1;disableMultiStrokeFill=0;fillColor=none;" parent="1" vertex="1">
          <mxGeometry x="120" y="130" width="160" height="310" as="geometry" />
        </mxCell>
        <mxCell id="g3nPJNQ9NZN2WeUWGuOm-4" value="" style="rounded=0;whiteSpace=wrap;html=1;glass=0;shadow=0;sketch=1;curveFitting=1;jiggle=2;sketchStyle=rough;disableMultiStroke=0;fillWeight=-1;disableMultiStrokeFill=0;fillColor=none;" parent="1" vertex="1">
          <mxGeometry x="300" y="200" width="160" height="240" as="geometry" />
        </mxCell>
        <mxCell id="g3nPJNQ9NZN2WeUWGuOm-5" value="" style="rounded=0;whiteSpace=wrap;html=1;glass=0;shadow=0;sketch=1;curveFitting=1;jiggle=2;sketchStyle=rough;disableMultiStroke=0;fillWeight=-1;disableMultiStrokeFill=0;fillColor=none;" parent="1" vertex="1">
          <mxGeometry x="480" y="200" width="160" height="310" as="geometry" />
        </mxCell>
        <mxCell id="g3nPJNQ9NZN2WeUWGuOm-6" value="" style="rounded=0;whiteSpace=wrap;html=1;glass=0;shadow=0;sketch=1;curveFitting=1;jiggle=2;sketchStyle=rough;disableMultiStroke=0;fillWeight=-1;disableMultiStrokeFill=0;fillColor=none;" parent="1" vertex="1">
          <mxGeometry x="660" y="200" width="160" height="160" as="geometry" />
        </mxCell>
        <mxCell id="g3nPJNQ9NZN2WeUWGuOm-13" value="&lt;font style=&quot;font-size: 28px;&quot;&gt;big cloud&lt;/font&gt;" style="text;html=1;strokeColor=none;fillColor=none;align=center;verticalAlign=middle;whiteSpace=wrap;rounded=0;fontSize=28;fontFamily=Bradley Hand;sketch=1;curveFitting=1;jiggle=2;sketchStyle=rough;disableMultiStroke=0;fillWeight=-1;disableMultiStrokeFill=0;spacing=1;" parent="1" vertex="1">
          <mxGeometry x="120" y="270" width="160" height="40" as="geometry" />
        </mxCell>
        <mxCell id="Erqu41HOUMXvgqna8mPy-2" value="&lt;font face=&quot;Bradley Hand&quot; style=&quot;font-size: 28px;&quot;&gt;small cloud&lt;/font&gt;" style="text;html=1;strokeColor=none;fillColor=none;align=center;verticalAlign=middle;whiteSpace=wrap;rounded=0;fontSize=28;fontFamily=Gochi Hand;sketch=1;curveFitting=1;jiggle=2;sketchStyle=rough;disableMultiStroke=0;fillWeight=-1;disableMultiStrokeFill=0;spacing=1;" parent="1" vertex="1">
          <mxGeometry x="300" y="270" width="160" height="40" as="geometry" />
        </mxCell>
        <mxCell id="Erqu41HOUMXvgqna8mPy-3" value="&lt;font style=&quot;font-size: 28px;&quot;&gt;on premise&lt;/font&gt;" style="text;html=1;strokeColor=none;fillColor=none;align=center;verticalAlign=middle;whiteSpace=wrap;rounded=0;fontSize=28;sketch=1;curveFitting=1;jiggle=2;sketchStyle=rough;disableMultiStroke=0;fillWeight=-1;disableMultiStrokeFill=0;fontFamily=Bradley Hand;spacing=1;" parent="1" vertex="1">
          <mxGeometry x="480" y="270" width="160" height="40" as="geometry" />
        </mxCell>
        <mxCell id="Erqu41HOUMXvgqna8mPy-4" value="&lt;font style=&quot;font-size: 28px;&quot;&gt;edge&lt;/font&gt;" style="text;html=1;strokeColor=none;fillColor=none;align=center;verticalAlign=middle;whiteSpace=wrap;rounded=0;fontSize=28;sketch=1;curveFitting=1;jiggle=2;sketchStyle=rough;disableMultiStroke=0;fillWeight=-1;disableMultiStrokeFill=0;fontFamily=Bradley Hand;spacing=1;" parent="1" vertex="1">
          <mxGeometry x="670" y="270" width="150" height="40" as="geometry" />
        </mxCell>
        <mxCell id="hs8F6ffxhh7QRecEe4GT-18" value="" style="shape=flexArrow;endArrow=classic;html=1;rounded=0;fillColor=#6a00ff;strokeColor=#3700CC;width=5;sketch=1;curveFitting=1;jiggle=2;" edge="1" parent="1">
          <mxGeometry width="50" height="50" relative="1" as="geometry">
            <mxPoint x="40" y="230" as="sourcePoint" />
            <mxPoint x="40" y="150" as="targetPoint" />
          </mxGeometry>
        </mxCell>
        <mxCell id="hs8F6ffxhh7QRecEe4GT-19" value="" style="shape=flexArrow;endArrow=classic;html=1;rounded=0;fillColor=#6a00ff;strokeColor=#3700CC;width=5;sketch=1;curveFitting=1;jiggle=2;" edge="1" parent="1">
          <mxGeometry width="50" height="50" relative="1" as="geometry">
            <mxPoint x="40" y="390" as="sourcePoint" />
            <mxPoint x="40" y="470" as="targetPoint" />
          </mxGeometry>
        </mxCell>
        <mxCell id="hs8F6ffxhh7QRecEe4GT-20" value="&lt;font style=&quot;font-size: 30px;&quot;&gt;micro&lt;/font&gt;" style="text;html=1;strokeColor=none;fillColor=none;align=center;verticalAlign=middle;whiteSpace=wrap;rounded=0;fontSize=30;fontFamily=Bradley Hand;sketch=1;curveFitting=1;jiggle=2;sketchStyle=rough;disableMultiStroke=0;fillWeight=-1;disableMultiStrokeFill=0;fontColor=#6a00ff;fontStyle=0" vertex="1" parent="1">
          <mxGeometry x="-10" y="110" width="110" height="40" as="geometry" />
        </mxCell>
        <mxCell id="hs8F6ffxhh7QRecEe4GT-21" value="monolith" style="text;html=1;strokeColor=none;fillColor=none;align=center;verticalAlign=middle;whiteSpace=wrap;rounded=0;fontSize=30;fontFamily=Bradley Hand;sketch=1;curveFitting=1;jiggle=2;sketchStyle=rough;disableMultiStroke=0;fillWeight=-1;disableMultiStrokeFill=0;fontColor=#6a00ff;fontStyle=0" vertex="1" parent="1">
          <mxGeometry x="-10" y="480" width="110" height="40" as="geometry" />
        </mxCell>
        <mxCell id="hs8F6ffxhh7QRecEe4GT-23" value="&lt;font style=&quot;font-size: 24px;&quot;&gt;serverless&lt;/font&gt;" style="text;html=1;strokeColor=none;fillColor=none;align=center;verticalAlign=middle;whiteSpace=wrap;rounded=0;fontSize=24;fontFamily=Bradley Hand;sketch=1;curveFitting=1;jiggle=2;sketchStyle=rough;disableMultiStroke=0;fillWeight=-1;disableMultiStrokeFill=0;" vertex="1" parent="1">
          <mxGeometry x="300" y="100" width="110" height="40" as="geometry" />
        </mxCell>
        <mxCell id="hs8F6ffxhh7QRecEe4GT-25" value="" style="endArrow=none;html=1;rounded=0;startArrow=open;startFill=0;endFill=0;sketch=1;curveFitting=1;jiggle=2;" edge="1" parent="1">
          <mxGeometry width="50" height="50" relative="1" as="geometry">
            <mxPoint x="270" y="160" as="sourcePoint" />
            <mxPoint x="340" y="130" as="targetPoint" />
          </mxGeometry>
        </mxCell>
        <mxCell id="hs8F6ffxhh7QRecEe4GT-26" value="" style="ellipse;whiteSpace=wrap;html=1;dashed=1;fillColor=none;sketch=1;curveFitting=1;jiggle=2;disableMultiStroke=1;strokeWidth=1;" vertex="1" parent="1">
          <mxGeometry x="115" y="140" width="170" height="50" as="geometry" />
        </mxCell>
        <mxCell id="hs8F6ffxhh7QRecEe4GT-27" value="" style="ellipse;whiteSpace=wrap;html=1;dashed=1;fillColor=none;disableMultiStroke=1;sketch=1;curveFitting=1;jiggle=2;" vertex="1" parent="1">
          <mxGeometry x="475" y="450" width="175" height="50" as="geometry" />
        </mxCell>
        <mxCell id="hs8F6ffxhh7QRecEe4GT-28" value="&lt;font style=&quot;font-size: 24px;&quot;&gt;&#39;steel&#39;, mainframes, etc.&lt;/font&gt;" style="text;html=1;strokeColor=none;fillColor=none;align=center;verticalAlign=middle;whiteSpace=wrap;rounded=0;fontSize=24;fontFamily=Bradley Hand;sketch=1;curveFitting=1;jiggle=2;sketchStyle=rough;disableMultiStroke=0;fillWeight=-1;disableMultiStrokeFill=0;" vertex="1" parent="1">
          <mxGeometry x="650" y="500" width="250" height="40" as="geometry" />
        </mxCell>
        <mxCell id="hs8F6ffxhh7QRecEe4GT-29" value="" style="endArrow=none;html=1;rounded=0;startArrow=open;startFill=0;endFill=0;sketch=1;curveFitting=1;jiggle=2;entryX=0.086;entryY=-0.063;entryDx=0;entryDy=0;entryPerimeter=0;" edge="1" parent="1" target="hs8F6ffxhh7QRecEe4GT-28">
          <mxGeometry width="50" height="50" relative="1" as="geometry">
            <mxPoint x="620" y="480" as="sourcePoint" />
            <mxPoint x="670" y="490" as="targetPoint" />
          </mxGeometry>
        </mxCell>
        <mxCell id="hs8F6ffxhh7QRecEe4GT-31" value="k8s area" style="locked=1;" parent="0" />
        <mxCell id="hs8F6ffxhh7QRecEe4GT-30" value="" style="ellipse;whiteSpace=wrap;html=1;fillColor=#0050ef;strokeWidth=4;fontColor=#ffffff;strokeColor=none;fillStyle=hatch;sketch=1;curveFitting=1;jiggle=2;opacity=20;" vertex="1" parent="hs8F6ffxhh7QRecEe4GT-31">
          <mxGeometry x="60" y="160" width="820" height="300" as="geometry" />
        </mxCell>
        <mxCell id="hs8F6ffxhh7QRecEe4GT-34" value="k8s area line" style="" parent="0" />
        <mxCell id="hs8F6ffxhh7QRecEe4GT-33" value="" style="ellipse;whiteSpace=wrap;html=1;fillColor=none;strokeWidth=4;fontColor=#ffffff;strokeColor=#326ce5;fillStyle=hatch;sketch=1;curveFitting=1;jiggle=2;" vertex="1" parent="hs8F6ffxhh7QRecEe4GT-34">
          <mxGeometry x="60" y="160" width="820" height="300" as="geometry" />
        </mxCell>
        <mxCell id="hs8F6ffxhh7QRecEe4GT-32" value="&lt;font style=&quot;font-size: 42px;&quot;&gt;Kubernetes&lt;/font&gt;" style="text;html=1;strokeColor=none;fillColor=none;align=center;verticalAlign=middle;whiteSpace=wrap;rounded=0;fontSize=37;fontFamily=Bradley Hand;sketch=1;curveFitting=1;jiggle=2;sketchStyle=rough;disableMultiStroke=0;fillWeight=-1;disableMultiStrokeFill=0;fontColor=#326ce5;fontStyle=0" vertex="1" parent="hs8F6ffxhh7QRecEe4GT-34">
          <mxGeometry x="375" y="40" width="190" height="40" as="geometry" />
        </mxCell>
        <mxCell id="hs8F6ffxhh7QRecEe4GT-35" value="" style="endArrow=none;html=1;rounded=0;startArrow=open;startFill=0;endFill=0;sketch=1;curveFitting=1;jiggle=2;fontColor=#326CE5;strokeColor=#326CE5;strokeWidth=3;" edge="1" parent="hs8F6ffxhh7QRecEe4GT-34">
          <mxGeometry width="50" height="50" relative="1" as="geometry">
            <mxPoint x="470" y="140" as="sourcePoint" />
            <mxPoint x="470" y="90" as="targetPoint" />
            <Array as="points">
              <mxPoint x="470" y="100" />
            </Array>
          </mxGeometry>
        </mxCell>
      </root>
    </mxGraphModel>
  </diagram>
</mxfile>
